{
    "asset" : {
        "generator" : "Khronos glTF Blender I/O v1.5.17",
        "version" : "2.0"
    },
    "scene" : 0,
    "scenes" : [
        {
            "name" : "Scene",
            "nodes" : [
                0
            ]
        }
    ],
    "nodes" : [
        {
            "mesh" : 0,
            "name" : "Laptop.002",
            "rotation" : [
                0,
                -0.21601295471191406,
                0,
                0.9763904809951782
            ],
            "scale" : [
                0.17935240268707275,
                0.003964620176702738,
                0.11186150461435318
            ]
        }
    ],
    "materials" : [
        {
            "doubleSided" : true,
            "name" : "Material.061",
            "pbrMetallicRoughness" : {
                "baseColorFactor" : [
                    0.07640815526247025,
                    0.06914565712213516,
                    0.07317160815000534,
                    1
                ],
                "metallicFactor" : 0,
                "roughnessFactor" : 0.5
            }
        },
        {
            "doubleSided" : true,
            "name" : "Material.062",
            "pbrMetallicRoughness" : {
                "baseColorFactor" : [
                    0.38830000162124634,
                    0.38830000162124634,
                    0.38830000162124634,
                    1
                ],
                "metallicFactor" : 0,
                "roughnessFactor" : 0.5
            }
        },
        {
            "doubleSided" : true,
            "emissiveFactor" : [
                0.01655694842338562,
                0.09741654247045517,
                0.2632419466972351
            ],
            "name" : "Material.063",
            "pbrMetallicRoughness" : {
                "baseColorFactor" : [
                    0.030947890132665634,
                    0.31347939372062683,
                    0.8000000715255737,
                    1
                ],
                "metallicFactor" : 0,
                "roughnessFactor" : 0.5
            }
        },
        {
            "doubleSided" : true,
            "name" : "Material.064",
            "pbrMetallicRoughness" : {
                "baseColorFactor" : [
                    0.033092305064201355,
                    0.033092305064201355,
                    0.033092305064201355,
                    1
                ],
                "metallicFactor" : 0,
                "roughnessFactor" : 0.5
            }
        }
    ],
    "meshes" : [
        {
            "name" : "Cube.005",
            "primitives" : [
                {
                    "attributes" : {
                        "POSITION" : 0,
                        "NORMAL" : 1,
                        "TEXCOORD_0" : 2
                    },
                    "indices" : 3,
                    "material" : 0
                },
                {
                    "attributes" : {
                        "POSITION" : 4,
                        "NORMAL" : 5,
                        "TEXCOORD_0" : 6
                    },
                    "indices" : 7,
                    "material" : 1
                },
                {
                    "attributes" : {
                        "POSITION" : 8,
                        "NORMAL" : 9,
                        "TEXCOORD_0" : 10
                    },
                    "indices" : 11,
                    "material" : 2
                },
                {
                    "attributes" : {
                        "POSITION" : 12,
                        "NORMAL" : 13,
                        "TEXCOORD_0" : 14
                    },
                    "indices" : 15,
                    "material" : 3
                }
            ]
        }
    ],
    "accessors" : [
        {
            "bufferView" : 0,
            "componentType" : 5126,
            "count" : 2184,
            "max" : [
                1.0000001192092896,
                52.83440017700195,
                1.0692367553710938
            ],
            "min" : [
                -1.0000001192092896,
                -1,
                -2.1056182384490967
            ],
            "type" : "VEC3"
        },
        {
            "bufferView" : 1,
            "componentType" : 5126,
            "count" : 2184,
            "type" : "VEC3"
        },
        {
            "bufferView" : 2,
            "componentType" : 5126,
            "count" : 2184,
            "type" : "VEC2"
        },
        {
            "bufferView" : 3,
            "componentType" : 5123,
            "count" : 3894,
            "type" : "SCALAR"
        },
        {
            "bufferView" : 4,
            "componentType" : 5126,
            "count" : 20,
            "max" : [
                0.3362521231174469,
                1.5942269563674927,
                0.9985826015472412
            ],
            "min" : [
                -0.343046098947525,
                1,
                0.4290178120136261
            ],
            "type" : "VEC3"
        },
        {
            "bufferView" : 5,
            "componentType" : 5126,
            "count" : 20,
            "type" : "VEC3"
        },
        {
            "bufferView" : 6,
            "componentType" : 5126,
            "count" : 20,
            "type" : "VEC2"
        },
        {
            "bufferView" : 7,
            "componentType" : 5123,
            "count" : 30,
            "type" : "SCALAR"
        },
        {
            "bufferView" : 8,
            "componentType" : 5126,
            "count" : 4,
            "max" : [
                0.935398519039154,
                50.80335235595703,
                -1.1053285598754883
            ],
            "min" : [
                -0.9276801347732544,
                2.625223159790039,
                -2.031553268432617
            ],
            "type" : "VEC3"
        },
        {
            "bufferView" : 9,
            "componentType" : 5126,
            "count" : 4,
            "type" : "VEC3"
        },
        {
            "bufferView" : 10,
            "componentType" : 5126,
            "count" : 4,
            "type" : "VEC2"
        },
        {
            "bufferView" : 11,
            "componentType" : 5123,
            "count" : 6,
            "type" : "SCALAR"
        },
        {
            "bufferView" : 12,
            "componentType" : 5126,
            "count" : 4,
            "max" : [
                1,
                1,
                -0.765748918056488
            ],
            "min" : [
                -1,
                1,
                -0.8595173358917236
            ],
            "type" : "VEC3"
        },
        {
            "bufferView" : 13,
            "componentType" : 5126,
            "count" : 4,
            "type" : "VEC3"
        },
        {
            "bufferView" : 14,
            "componentType" : 5126,
            "count" : 4,
            "type" : "VEC2"
        },
        {
            "bufferView" : 15,
            "componentType" : 5123,
            "count" : 6,
            "type" : "SCALAR"
        }
    ],
    "bufferViews" : [
        {
            "buffer" : 0,
            "byteLength" : 26208,
            "byteOffset" : 0
        },
        {
            "buffer" : 0,
            "byteLength" : 26208,
            "byteOffset" : 26208
        },
        {
            "buffer" : 0,
            "byteLength" : 17472,
            "byteOffset" : 52416
        },
        {
            "buffer" : 0,
            "byteLength" : 7788,
            "byteOffset" : 69888
        },
        {
            "buffer" : 0,
            "byteLength" : 240,
            "byteOffset" : 77676
        },
        {
            "buffer" : 0,
            "byteLength" : 240,
            "byteOffset" : 77916
        },
        {
            "buffer" : 0,
            "byteLength" : 160,
            "byteOffset" : 78156
        },
        {
            "buffer" : 0,
            "byteLength" : 60,
            "byteOffset" : 78316
        },
        {
            "buffer" : 0,
            "byteLength" : 48,
            "byteOffset" : 78376
        },
        {
            "buffer" : 0,
            "byteLength" : 48,
            "byteOffset" : 78424
        },
        {
            "buffer" : 0,
            "byteLength" : 32,
            "byteOffset" : 78472
        },
        {
            "buffer" : 0,
            "byteLength" : 12,
            "byteOffset" : 78504
        },
        {
            "buffer" : 0,
            "byteLength" : 48,
            "byteOffset" : 78516
        },
        {
            "buffer" : 0,
            "byteLength" : 48,
            "byteOffset" : 78564
        },
        {
            "buffer" : 0,
            "byteLength" : 32,
            "byteOffset" : 78612
        },
        {
            "buffer" : 0,
            "byteLength" : 12,
            "byteOffset" : 78644
        }
    ],
    "buffers" : [
        {
            "byteLength" : 78656,
            "uri" : "data:application/octet-stream;base64,"
        }
    ]
}
