{
    "asset" : {
        "generator" : "Khronos glTF Blender I/O v1.5.17",
        "version" : "2.0"
    },
    "scene" : 0,
    "scenes" : [
        {
            "name" : "Scene",
            "nodes" : [
                0
            ]
        }
    ],
    "nodes" : [
        {
            "mesh" : 0,
            "name" : "Blender",
            "rotation" : [
                0.7071068286895752,
                0,
                0,
                0.7071068286895752
            ],
            "scale" : [
                1.4479193687438965,
                1.2836133241653442,
                1.3232499361038208
            ]
        }
    ],
    "materials" : [
        {
            "doubleSided" : true,
            "name" : "Material.026",
            "pbrMetallicRoughness" : {
                "baseColorFactor" : [
                    0.8148468732833862,
                    0.17788845300674438,
                    0,
                    1
                ],
                "metallicFactor" : 0,
                "roughnessFactor" : 0.5
            }
        },
        {
            "doubleSided" : true,
            "name" : "Material.027",
            "pbrMetallicRoughness" : {
                "metallicFactor" : 0,
                "roughnessFactor" : 0.5
            }
        },
        {
            "doubleSided" : true,
            "name" : "Material.028",
            "pbrMetallicRoughness" : {
                "baseColorFactor" : [
                    0.023153362795710564,
                    0.09530746936798096,
                    0.23839758336544037,
                    1
                ],
                "metallicFactor" : 0,
                "roughnessFactor" : 0.5
            }
        }
    ],
    "meshes" : [
        {
            "name" : "Circle",
            "primitives" : [
                {
                    "attributes" : {
                        "POSITION" : 0,
                        "NORMAL" : 1,
                        "TEXCOORD_0" : 2
                    },
                    "indices" : 3,
                    "material" : 0
                },
                {
                    "attributes" : {
                        "POSITION" : 4,
                        "NORMAL" : 5,
                        "TEXCOORD_0" : 6
                    },
                    "indices" : 7,
                    "material" : 1
                },
                {
                    "attributes" : {
                        "POSITION" : 8,
                        "NORMAL" : 9,
                        "TEXCOORD_0" : 10
                    },
                    "indices" : 11,
                    "material" : 2
                }
            ]
        }
    ],
    "accessors" : [
        {
            "bufferView" : 0,
            "componentType" : 5126,
            "count" : 864,
            "max" : [
                1.253822922706604,
                0.09534257650375366,
                1.1474697589874268
            ],
            "min" : [
                -1.6031674146652222,
                -0.10239839553833008,
                -1.3956403732299805
            ],
            "type" : "VEC3"
        },
        {
            "bufferView" : 1,
            "componentType" : 5126,
            "count" : 864,
            "type" : "VEC3"
        },
        {
            "bufferView" : 2,
            "componentType" : 5126,
            "count" : 864,
            "type" : "VEC2"
        },
        {
            "bufferView" : 3,
            "componentType" : 5123,
            "count" : 1464,
            "type" : "SCALAR"
        },
        {
            "bufferView" : 4,
            "componentType" : 5126,
            "count" : 68,
            "max" : [
                0.8693934679031372,
                0.04553121328353882,
                0.6690046191215515
            ],
            "min" : [
                -0.34552621841430664,
                0.04553121328353882,
                -0.5342691540718079
            ],
            "type" : "VEC3"
        },
        {
            "bufferView" : 5,
            "componentType" : 5126,
            "count" : 68,
            "type" : "VEC3"
        },
        {
            "bufferView" : 6,
            "componentType" : 5126,
            "count" : 68,
            "type" : "VEC2"
        },
        {
            "bufferView" : 7,
            "componentType" : 5123,
            "count" : 192,
            "type" : "SCALAR"
        },
        {
            "bufferView" : 8,
            "componentType" : 5126,
            "count" : 160,
            "max" : [
                0.6462053060531616,
                0.15800082683563232,
                0.42564570903778076
            ],
            "min" : [
                -0.12053683400154114,
                0.04553121328353882,
                -0.34954458475112915
            ],
            "type" : "VEC3"
        },
        {
            "bufferView" : 9,
            "componentType" : 5126,
            "count" : 160,
            "type" : "VEC3"
        },
        {
            "bufferView" : 10,
            "componentType" : 5126,
            "count" : 160,
            "type" : "VEC2"
        },
        {
            "bufferView" : 11,
            "componentType" : 5123,
            "count" : 282,
            "type" : "SCALAR"
        }
    ],
    "bufferViews" : [
        {
            "buffer" : 0,
            "byteLength" : 10368,
            "byteOffset" : 0
        },
        {
            "buffer" : 0,
            "byteLength" : 10368,
            "byteOffset" : 10368
        },
        {
            "buffer" : 0,
            "byteLength" : 6912,
            "byteOffset" : 20736
        },
        {
            "buffer" : 0,
            "byteLength" : 2928,
            "byteOffset" : 27648
        },
        {
            "buffer" : 0,
            "byteLength" : 816,
            "byteOffset" : 30576
        },
        {
            "buffer" : 0,
            "byteLength" : 816,
            "byteOffset" : 31392
        },
        {
            "buffer" : 0,
            "byteLength" : 544,
            "byteOffset" : 32208
        },
        {
            "buffer" : 0,
            "byteLength" : 384,
            "byteOffset" : 32752
        },
        {
            "buffer" : 0,
            "byteLength" : 1920,
            "byteOffset" : 33136
        },
        {
            "buffer" : 0,
            "byteLength" : 1920,
            "byteOffset" : 35056
        },
        {
            "buffer" : 0,
            "byteLength" : 1280,
            "byteOffset" : 36976
        },
        {
            "buffer" : 0,
            "byteLength" : 564,
            "byteOffset" : 38256
        }
    ],
    "buffers" : [
        {
            "byteLength" : 38820,
            "uri" : "data:application/octet-stream;base64,"
        }
    ]
}
