{
    "asset" : {
        "generator" : "Khronos glTF Blender I/O v1.5.17",
        "version" : "2.0"
    },
    "scene" : 0,
    "scenes" : [
        {
            "name" : "Scene",
            "nodes" : [
                0
            ]
        }
    ],
    "nodes" : [
        {
            "mesh" : 0,
            "name" : "Plane.001",
            "rotation" : [
                0.6522499918937683,
                -0.2730751037597656,
                -0.273075133562088,
                0.6522499918937683
            ],
            "scale" : [
                0.3379349708557129,
                0.3379349708557129,
                0.3379349708557129
            ]
        }
    ],
    "materials" : [
        {
            "doubleSided" : true,
            "name" : "Material.014",
            "pbrMetallicRoughness" : {
                "baseColorFactor" : [
                    0.8148468732833862,
                    0.061246056109666824,
                    0.04970657452940941,
                    1
                ],
                "metallicFactor" : 0,
                "roughnessFactor" : 0.5
            }
        },
        {
            "doubleSided" : true,
            "name" : "Material.015",
            "pbrMetallicRoughness" : {
                "baseColorFactor" : [
                    0.057805441319942474,
                    0.23074008524417877,
                    0.8631572127342224,
                    1
                ],
                "metallicFactor" : 0,
                "roughnessFactor" : 0.5
            }
        },
        {
            "doubleSided" : true,
            "name" : "Material.016",
            "pbrMetallicRoughness" : {
                "baseColorFactor" : [
                    0.04091520607471466,
                    0.3813260495662689,
                    0.10224173218011856,
                    1
                ],
                "metallicFactor" : 0,
                "roughnessFactor" : 0.5
            }
        },
        {
            "doubleSided" : true,
            "name" : "Material.017",
            "pbrMetallicRoughness" : {
                "baseColorFactor" : [
                    0.9559733867645264,
                    0.4969330132007599,
                    0.04373503103852272,
                    1
                ],
                "metallicFactor" : 0,
                "roughnessFactor" : 0.5
            }
        }
    ],
    "meshes" : [
        {
            "name" : "Plane.020",
            "primitives" : [
                {
                    "attributes" : {
                        "POSITION" : 0,
                        "NORMAL" : 1,
                        "TEXCOORD_0" : 2
                    },
                    "indices" : 3,
                    "material" : 0
                },
                {
                    "attributes" : {
                        "POSITION" : 4,
                        "NORMAL" : 5,
                        "TEXCOORD_0" : 6
                    },
                    "indices" : 7,
                    "material" : 1
                },
                {
                    "attributes" : {
                        "POSITION" : 8,
                        "NORMAL" : 9,
                        "TEXCOORD_0" : 10
                    },
                    "indices" : 11,
                    "material" : 2
                },
                {
                    "attributes" : {
                        "POSITION" : 12,
                        "NORMAL" : 13,
                        "TEXCOORD_0" : 14
                    },
                    "indices" : 15,
                    "material" : 3
                }
            ]
        }
    ],
    "accessors" : [
        {
            "bufferView" : 0,
            "componentType" : 5126,
            "count" : 202,
            "max" : [
                -0.8187258243560791,
                0.9992671608924866,
                2.2377912998199463
            ],
            "min" : [
                -5.96328592300415,
                -0.9992673993110657,
                -6.0247063636779785
            ],
            "type" : "VEC3"
        },
        {
            "bufferView" : 1,
            "componentType" : 5126,
            "count" : 202,
            "type" : "VEC3"
        },
        {
            "bufferView" : 2,
            "componentType" : 5126,
            "count" : 202,
            "type" : "VEC2"
        },
        {
            "bufferView" : 3,
            "componentType" : 5123,
            "count" : 318,
            "type" : "SCALAR"
        },
        {
            "bufferView" : 4,
            "componentType" : 5126,
            "count" : 384,
            "max" : [
                6.972177028656006,
                0.9992671608924866,
                3.549023389816284
            ],
            "min" : [
                -0.8393515944480896,
                -0.9992673993110657,
                -6.036953449249268
            ],
            "type" : "VEC3"
        },
        {
            "bufferView" : 5,
            "componentType" : 5126,
            "count" : 384,
            "type" : "VEC3"
        },
        {
            "bufferView" : 6,
            "componentType" : 5126,
            "count" : 384,
            "type" : "VEC2"
        },
        {
            "bufferView" : 7,
            "componentType" : 5123,
            "count" : 600,
            "type" : "SCALAR"
        },
        {
            "bufferView" : 8,
            "componentType" : 5126,
            "count" : 110,
            "max" : [
                3.654876232147217,
                0.9992671608924866,
                6.859467506408691
            ],
            "min" : [
                -0.7642451524734497,
                -0.9992673993110657,
                1.8174984455108643
            ],
            "type" : "VEC3"
        },
        {
            "bufferView" : 9,
            "componentType" : 5126,
            "count" : 110,
            "type" : "VEC3"
        },
        {
            "bufferView" : 10,
            "componentType" : 5126,
            "count" : 110,
            "type" : "VEC2"
        },
        {
            "bufferView" : 11,
            "componentType" : 5123,
            "count" : 168,
            "type" : "SCALAR"
        },
        {
            "bufferView" : 12,
            "componentType" : 5126,
            "count" : 328,
            "max" : [
                -0.7340649366378784,
                0.9992671608924866,
                6.888046741485596
            ],
            "min" : [
                -5.249810695648193,
                -0.9992673993110657,
                -1.0510945320129395
            ],
            "type" : "VEC3"
        },
        {
            "bufferView" : 13,
            "componentType" : 5126,
            "count" : 328,
            "type" : "VEC3"
        },
        {
            "bufferView" : 14,
            "componentType" : 5126,
            "count" : 328,
            "type" : "VEC2"
        },
        {
            "bufferView" : 15,
            "componentType" : 5123,
            "count" : 510,
            "type" : "SCALAR"
        }
    ],
    "bufferViews" : [
        {
            "buffer" : 0,
            "byteLength" : 2424,
            "byteOffset" : 0
        },
        {
            "buffer" : 0,
            "byteLength" : 2424,
            "byteOffset" : 2424
        },
        {
            "buffer" : 0,
            "byteLength" : 1616,
            "byteOffset" : 4848
        },
        {
            "buffer" : 0,
            "byteLength" : 636,
            "byteOffset" : 6464
        },
        {
            "buffer" : 0,
            "byteLength" : 4608,
            "byteOffset" : 7100
        },
        {
            "buffer" : 0,
            "byteLength" : 4608,
            "byteOffset" : 11708
        },
        {
            "buffer" : 0,
            "byteLength" : 3072,
            "byteOffset" : 16316
        },
        {
            "buffer" : 0,
            "byteLength" : 1200,
            "byteOffset" : 19388
        },
        {
            "buffer" : 0,
            "byteLength" : 1320,
            "byteOffset" : 20588
        },
        {
            "buffer" : 0,
            "byteLength" : 1320,
            "byteOffset" : 21908
        },
        {
            "buffer" : 0,
            "byteLength" : 880,
            "byteOffset" : 23228
        },
        {
            "buffer" : 0,
            "byteLength" : 336,
            "byteOffset" : 24108
        },
        {
            "buffer" : 0,
            "byteLength" : 3936,
            "byteOffset" : 24444
        },
        {
            "buffer" : 0,
            "byteLength" : 3936,
            "byteOffset" : 28380
        },
        {
            "buffer" : 0,
            "byteLength" : 2624,
            "byteOffset" : 32316
        },
        {
            "buffer" : 0,
            "byteLength" : 1020,
            "byteOffset" : 34940
        }
    ],
    "buffers" : [
        {
            "byteLength" : 35960,
            "uri" : "data:application/octet-stream;base64,"
        }
    ]
}
