{
    "asset" : {
        "generator" : "Khronos glTF Blender I/O v1.5.17",
        "version" : "2.0"
    },
    "scene" : 0,
    "scenes" : [
        {
            "name" : "Scene",
            "nodes" : [
                0
            ]
        }
    ],
    "nodes" : [
        {
            "mesh" : 0,
            "name" : "Git",
            "rotation" : [
                0.6532815098762512,
                -0.27059805393218994,
                -0.27059805393218994,
                0.6532814502716064
            ],
            "scale" : [
                1.1756632328033447,
                1.1756631135940552,
                1.1756632328033447
            ]
        }
    ],
    "materials" : [
        {
            "doubleSided" : true,
            "name" : "Material.025",
            "pbrMetallicRoughness" : {
                "baseColorFactor" : [
                    0.8713672757148743,
                    0.08228270709514618,
                    0.0368894599378109,
                    1
                ],
                "metallicFactor" : 0,
                "roughnessFactor" : 0.5
            }
        },
        {
            "doubleSided" : true,
            "name" : "Material.024",
            "pbrMetallicRoughness" : {
                "metallicFactor" : 0,
                "roughnessFactor" : 0.5
            }
        }
    ],
    "meshes" : [
        {
            "name" : "Plane.026",
            "primitives" : [
                {
                    "attributes" : {
                        "POSITION" : 0,
                        "NORMAL" : 1,
                        "TEXCOORD_0" : 2
                    },
                    "indices" : 3,
                    "material" : 0
                },
                {
                    "attributes" : {
                        "POSITION" : 4,
                        "NORMAL" : 5,
                        "TEXCOORD_0" : 6
                    },
                    "indices" : 7,
                    "material" : 1
                }
            ]
        }
    ],
    "accessors" : [
        {
            "bufferView" : 0,
            "componentType" : 5126,
            "count" : 294,
            "max" : [
                1.0036464929580688,
                0.11457934975624084,
                1.0084166526794434
            ],
            "min" : [
                -0.9963535070419312,
                -0.1396980881690979,
                -0.9915834069252014
            ],
            "type" : "VEC3"
        },
        {
            "bufferView" : 1,
            "componentType" : 5126,
            "count" : 294,
            "type" : "VEC3"
        },
        {
            "bufferView" : 2,
            "componentType" : 5126,
            "count" : 294,
            "type" : "VEC2"
        },
        {
            "bufferView" : 3,
            "componentType" : 5123,
            "count" : 678,
            "type" : "SCALAR"
        },
        {
            "bufferView" : 4,
            "componentType" : 5126,
            "count" : 508,
            "max" : [
                0.6090691685676575,
                0.19161134958267212,
                0.604058027267456
            ],
            "min" : [
                -1.0339475870132446,
                0.0336877778172493,
                -0.5816182494163513
            ],
            "type" : "VEC3"
        },
        {
            "bufferView" : 5,
            "componentType" : 5126,
            "count" : 508,
            "type" : "VEC3"
        },
        {
            "bufferView" : 6,
            "componentType" : 5126,
            "count" : 508,
            "type" : "VEC2"
        },
        {
            "bufferView" : 7,
            "componentType" : 5123,
            "count" : 894,
            "type" : "SCALAR"
        }
    ],
    "bufferViews" : [
        {
            "buffer" : 0,
            "byteLength" : 3528,
            "byteOffset" : 0
        },
        {
            "buffer" : 0,
            "byteLength" : 3528,
            "byteOffset" : 3528
        },
        {
            "buffer" : 0,
            "byteLength" : 2352,
            "byteOffset" : 7056
        },
        {
            "buffer" : 0,
            "byteLength" : 1356,
            "byteOffset" : 9408
        },
        {
            "buffer" : 0,
            "byteLength" : 6096,
            "byteOffset" : 10764
        },
        {
            "buffer" : 0,
            "byteLength" : 6096,
            "byteOffset" : 16860
        },
        {
            "buffer" : 0,
            "byteLength" : 4064,
            "byteOffset" : 22956
        },
        {
            "buffer" : 0,
            "byteLength" : 1788,
            "byteOffset" : 27020
        }
    ],
    "buffers" : [
        {
            "byteLength" : 28808,
            "uri" : "data:application/octet-stream;base64,"
        }
    ]
}
