{
    "asset" : {
        "generator" : "Khronos glTF Blender I/O v1.5.17",
        "version" : "2.0"
    },
    "scene" : 0,
    "scenes" : [
        {
            "name" : "Scene",
            "nodes" : [
                0,
                1
            ]
        }
    ],
    "nodes" : [
        {
            "mesh" : 0,
            "name" : "CSS",
            "rotation" : [
                0.6966503858566284,
                0.12115392833948135,
                -0.12115393579006195,
                0.6966503262519836
            ],
            "scale" : [
                0.07440847158432007,
                0.14668822288513184,
                0.07440847158432007
            ],
            "translation" : [
                -1.1710821390151978,
                -0.2708998918533325,
                -0.29041948914527893
            ]
        },
        {
            "mesh" : 1,
            "name" : "HTML",
            "rotation" : [
                0.7056697010993958,
                -0.045058730989694595,
                0.045058734714984894,
                0.7056697010993958
            ],
            "scale" : [
                0.07564114779233932,
                0.07564114779233932,
                0.07564114779233932
            ],
            "translation" : [
                1.1845530271530151,
                0,
                0.29041948914527893
            ]
        }
    ],
    "materials" : [
        {
            "doubleSided" : true,
            "name" : "Material.006",
            "pbrMetallicRoughness" : {
                "baseColorFactor" : [
                    0.10046422481536865,
                    0.10046422481536865,
                    0.10046422481536865,
                    1
                ],
                "metallicFactor" : 0,
                "roughnessFactor" : 0.5
            }
        },
        {
            "doubleSided" : true,
            "name" : "Material.003",
            "pbrMetallicRoughness" : {
                "baseColorFactor" : [
                    0.02604697458446026,
                    0.08701447397470474,
                    0.8900054693222046,
                    1
                ],
                "metallicFactor" : 0,
                "roughnessFactor" : 0.5
            }
        },
        {
            "doubleSided" : true,
            "name" : "Material.004",
            "pbrMetallicRoughness" : {
                "baseColorFactor" : [
                    0.018640683963894844,
                    0.2265235036611557,
                    1,
                    1
                ],
                "metallicFactor" : 0,
                "roughnessFactor" : 0.5
            }
        },
        {
            "doubleSided" : true,
            "name" : "Material.005",
            "pbrMetallicRoughness" : {
                "metallicFactor" : 0,
                "roughnessFactor" : 0.5
            }
        },
        {
            "doubleSided" : true,
            "name" : "Material.008",
            "pbrMetallicRoughness" : {
                "baseColorFactor" : [
                    0.7758224010467529,
                    0.07818741351366043,
                    0.024157628417015076,
                    1
                ],
                "metallicFactor" : 0,
                "roughnessFactor" : 0.5
            }
        },
        {
            "doubleSided" : true,
            "name" : "Material.009",
            "pbrMetallicRoughness" : {
                "baseColorFactor" : [
                    0.8713672757148743,
                    0.13013650476932526,
                    0.02624122053384781,
                    1
                ],
                "metallicFactor" : 0,
                "roughnessFactor" : 0.5
            }
        }
    ],
    "meshes" : [
        {
            "name" : "Plane.007",
            "primitives" : [
                {
                    "attributes" : {
                        "POSITION" : 0,
                        "NORMAL" : 1,
                        "TEXCOORD_0" : 2
                    },
                    "indices" : 3,
                    "material" : 0
                },
                {
                    "attributes" : {
                        "POSITION" : 4,
                        "NORMAL" : 5,
                        "TEXCOORD_0" : 6
                    },
                    "indices" : 7,
                    "material" : 1
                },
                {
                    "attributes" : {
                        "POSITION" : 8,
                        "NORMAL" : 9,
                        "TEXCOORD_0" : 10
                    },
                    "indices" : 11,
                    "material" : 2
                },
                {
                    "attributes" : {
                        "POSITION" : 12,
                        "NORMAL" : 13,
                        "TEXCOORD_0" : 14
                    },
                    "indices" : 15,
                    "material" : 3
                }
            ]
        },
        {
            "name" : "Plane.013",
            "primitives" : [
                {
                    "attributes" : {
                        "POSITION" : 16,
                        "NORMAL" : 17,
                        "TEXCOORD_0" : 18
                    },
                    "indices" : 19,
                    "material" : 0
                },
                {
                    "attributes" : {
                        "POSITION" : 20,
                        "NORMAL" : 21,
                        "TEXCOORD_0" : 22
                    },
                    "indices" : 23,
                    "material" : 4
                },
                {
                    "attributes" : {
                        "POSITION" : 24,
                        "NORMAL" : 25,
                        "TEXCOORD_0" : 26
                    },
                    "indices" : 27,
                    "material" : 5
                },
                {
                    "attributes" : {
                        "POSITION" : 28,
                        "NORMAL" : 29,
                        "TEXCOORD_0" : 30
                    },
                    "indices" : 31,
                    "material" : 3
                }
            ]
        }
    ],
    "accessors" : [
        {
            "bufferView" : 0,
            "componentType" : 5126,
            "count" : 300,
            "max" : [
                7.696884632110596,
                1.1312240362167358,
                -16.26688003540039
            ],
            "min" : [
                -8.234664916992188,
                -0.2127089649438858,
                -22.135902404785156
            ],
            "type" : "VEC3"
        },
        {
            "bufferView" : 1,
            "componentType" : 5126,
            "count" : 300,
            "type" : "VEC3"
        },
        {
            "bufferView" : 2,
            "componentType" : 5126,
            "count" : 300,
            "type" : "VEC2"
        },
        {
            "bufferView" : 3,
            "componentType" : 5123,
            "count" : 588,
            "type" : "SCALAR"
        },
        {
            "bufferView" : 4,
            "componentType" : 5126,
            "count" : 113,
            "max" : [
                15.352314949035645,
                0.5455726385116577,
                21.36394500732422
            ],
            "min" : [
                -15.45947551727295,
                -0.8178634643554688,
                -13.617900848388672
            ],
            "type" : "VEC3"
        },
        {
            "bufferView" : 5,
            "componentType" : 5126,
            "count" : 113,
            "type" : "VEC3"
        },
        {
            "bufferView" : 6,
            "componentType" : 5126,
            "count" : 113,
            "type" : "VEC2"
        },
        {
            "bufferView" : 7,
            "componentType" : 5123,
            "count" : 219,
            "type" : "SCALAR"
        },
        {
            "bufferView" : 8,
            "componentType" : 5126,
            "count" : 51,
            "max" : [
                12.513209342956543,
                0.5455726385116577,
                18.713581085205078
            ],
            "min" : [
                -0.07429313659667969,
                0.1515115350484848,
                -11.009407043457031
            ],
            "type" : "VEC3"
        },
        {
            "bufferView" : 9,
            "componentType" : 5126,
            "count" : 51,
            "type" : "VEC3"
        },
        {
            "bufferView" : 10,
            "componentType" : 5126,
            "count" : 51,
            "type" : "VEC2"
        },
        {
            "bufferView" : 11,
            "componentType" : 5123,
            "count" : 93,
            "type" : "SCALAR"
        },
        {
            "bufferView" : 12,
            "componentType" : 5126,
            "count" : 131,
            "max" : [
                9.58803939819336,
                1.088315725326538,
                14.709918975830078
            ],
            "min" : [
                -9.739808082580566,
                0.1515115350484848,
                -7.166770935058594
            ],
            "type" : "VEC3"
        },
        {
            "bufferView" : 13,
            "componentType" : 5126,
            "count" : 131,
            "type" : "VEC3"
        },
        {
            "bufferView" : 14,
            "componentType" : 5126,
            "count" : 131,
            "type" : "VEC2"
        },
        {
            "bufferView" : 15,
            "componentType" : 5123,
            "count" : 228,
            "type" : "SCALAR"
        },
        {
            "bufferView" : 16,
            "componentType" : 5126,
            "count" : 294,
            "max" : [
                12.373653411865234,
                1.8327443599700928,
                -15.063262939453125
            ],
            "min" : [
                -12.38070011138916,
                -0.41470956802368164,
                -20.854692459106445
            ],
            "type" : "VEC3"
        },
        {
            "bufferView" : 17,
            "componentType" : 5126,
            "count" : 294,
            "type" : "VEC3"
        },
        {
            "bufferView" : 18,
            "componentType" : 5126,
            "count" : 294,
            "type" : "VEC2"
        },
        {
            "bufferView" : 19,
            "componentType" : 5123,
            "count" : 528,
            "type" : "SCALAR"
        },
        {
            "bufferView" : 20,
            "componentType" : 5126,
            "count" : 127,
            "max" : [
                15.107976913452148,
                0.9367755651473999,
                21.940153121948242
            ],
            "min" : [
                -15.201687812805176,
                -1.7072879076004028,
                -12.471611976623535
            ],
            "type" : "VEC3"
        },
        {
            "bufferView" : 21,
            "componentType" : 5126,
            "count" : 127,
            "type" : "VEC3"
        },
        {
            "bufferView" : 22,
            "componentType" : 5126,
            "count" : 127,
            "type" : "VEC2"
        },
        {
            "bufferView" : 23,
            "componentType" : 5123,
            "count" : 228,
            "type" : "SCALAR"
        },
        {
            "bufferView" : 24,
            "componentType" : 5126,
            "count" : 50,
            "max" : [
                12.315139770507812,
                0.9367755651473999,
                19.332983016967773
            ],
            "min" : [
                -0.0672311782836914,
                0.17258691787719727,
                -9.905628204345703
            ],
            "type" : "VEC3"
        },
        {
            "bufferView" : 25,
            "componentType" : 5126,
            "count" : 50,
            "type" : "VEC3"
        },
        {
            "bufferView" : 26,
            "componentType" : 5126,
            "count" : 50,
            "type" : "VEC2"
        },
        {
            "bufferView" : 27,
            "componentType" : 5123,
            "count" : 96,
            "type" : "SCALAR"
        },
        {
            "bufferView" : 28,
            "componentType" : 5126,
            "count" : 149,
            "max" : [
                9.453901290893555,
                2.229353904724121,
                15.385583877563477
            ],
            "min" : [
                -9.570965766906738,
                0.17258691787719727,
                -6.137872695922852
            ],
            "type" : "VEC3"
        },
        {
            "bufferView" : 29,
            "componentType" : 5126,
            "count" : 149,
            "type" : "VEC3"
        },
        {
            "bufferView" : 30,
            "componentType" : 5126,
            "count" : 149,
            "type" : "VEC2"
        },
        {
            "bufferView" : 31,
            "componentType" : 5123,
            "count" : 264,
            "type" : "SCALAR"
        }
    ],
    "bufferViews" : [
        {
            "buffer" : 0,
            "byteLength" : 3600,
            "byteOffset" : 0
        },
        {
            "buffer" : 0,
            "byteLength" : 3600,
            "byteOffset" : 3600
        },
        {
            "buffer" : 0,
            "byteLength" : 2400,
            "byteOffset" : 7200
        },
        {
            "buffer" : 0,
            "byteLength" : 1176,
            "byteOffset" : 9600
        },
        {
            "buffer" : 0,
            "byteLength" : 1356,
            "byteOffset" : 10776
        },
        {
            "buffer" : 0,
            "byteLength" : 1356,
            "byteOffset" : 12132
        },
        {
            "buffer" : 0,
            "byteLength" : 904,
            "byteOffset" : 13488
        },
        {
            "buffer" : 0,
            "byteLength" : 438,
            "byteOffset" : 14392
        },
        {
            "buffer" : 0,
            "byteLength" : 612,
            "byteOffset" : 14832
        },
        {
            "buffer" : 0,
            "byteLength" : 612,
            "byteOffset" : 15444
        },
        {
            "buffer" : 0,
            "byteLength" : 408,
            "byteOffset" : 16056
        },
        {
            "buffer" : 0,
            "byteLength" : 186,
            "byteOffset" : 16464
        },
        {
            "buffer" : 0,
            "byteLength" : 1572,
            "byteOffset" : 16652
        },
        {
            "buffer" : 0,
            "byteLength" : 1572,
            "byteOffset" : 18224
        },
        {
            "buffer" : 0,
            "byteLength" : 1048,
            "byteOffset" : 19796
        },
        {
            "buffer" : 0,
            "byteLength" : 456,
            "byteOffset" : 20844
        },
        {
            "buffer" : 0,
            "byteLength" : 3528,
            "byteOffset" : 21300
        },
        {
            "buffer" : 0,
            "byteLength" : 3528,
            "byteOffset" : 24828
        },
        {
            "buffer" : 0,
            "byteLength" : 2352,
            "byteOffset" : 28356
        },
        {
            "buffer" : 0,
            "byteLength" : 1056,
            "byteOffset" : 30708
        },
        {
            "buffer" : 0,
            "byteLength" : 1524,
            "byteOffset" : 31764
        },
        {
            "buffer" : 0,
            "byteLength" : 1524,
            "byteOffset" : 33288
        },
        {
            "buffer" : 0,
            "byteLength" : 1016,
            "byteOffset" : 34812
        },
        {
            "buffer" : 0,
            "byteLength" : 456,
            "byteOffset" : 35828
        },
        {
            "buffer" : 0,
            "byteLength" : 600,
            "byteOffset" : 36284
        },
        {
            "buffer" : 0,
            "byteLength" : 600,
            "byteOffset" : 36884
        },
        {
            "buffer" : 0,
            "byteLength" : 400,
            "byteOffset" : 37484
        },
        {
            "buffer" : 0,
            "byteLength" : 192,
            "byteOffset" : 37884
        },
        {
            "buffer" : 0,
            "byteLength" : 1788,
            "byteOffset" : 38076
        },
        {
            "buffer" : 0,
            "byteLength" : 1788,
            "byteOffset" : 39864
        },
        {
            "buffer" : 0,
            "byteLength" : 1192,
            "byteOffset" : 41652
        },
        {
            "buffer" : 0,
            "byteLength" : 528,
            "byteOffset" : 42844
        }
    ],
    "buffers" : [
        {
            "byteLength" : 43372,
            "uri" : "data:application/octet-stream;base64,"
        }
    ]
}
