{
    "asset" : {
        "generator" : "Khronos glTF Blender I/O v1.5.17",
        "version" : "2.0"
    },
    "scene" : 0,
    "scenes" : [
        {
            "name" : "Scene",
            "nodes" : [
                0
            ]
        }
    ],
    "nodes" : [
        {
            "mesh" : 0,
            "name" : "Plane",
            "rotation" : [
                0.7071068286895752,
                0,
                0,
                0.7071068286895752
            ],
            "scale" : [
                0.10014578700065613,
                0.10014578700065613,
                0.10014578700065613
            ]
        }
    ],
    "materials" : [
        {
            "doubleSided" : true,
            "name" : "Material.010",
            "pbrMetallicRoughness" : {
                "baseColorFactor" : [
                    0,
                    0.27106770873069763,
                    0.5824500918388367,
                    1
                ],
                "metallicFactor" : 0,
                "roughnessFactor" : 0.5
            }
        },
        {
            "doubleSided" : true,
            "name" : "Material.012",
            "pbrMetallicRoughness" : {
                "baseColorFactor" : [
                    0.8775546550750732,
                    0.30003464221954346,
                    0,
                    1
                ],
                "metallicFactor" : 0,
                "roughnessFactor" : 0.5
            }
        }
    ],
    "meshes" : [
        {
            "name" : "Plane.014",
            "primitives" : [
                {
                    "attributes" : {
                        "POSITION" : 0,
                        "NORMAL" : 1,
                        "TEXCOORD_0" : 2
                    },
                    "indices" : 3,
                    "material" : 0
                },
                {
                    "attributes" : {
                        "POSITION" : 4,
                        "NORMAL" : 5,
                        "TEXCOORD_0" : 6
                    },
                    "indices" : 7,
                    "material" : 1
                }
            ]
        }
    ],
    "accessors" : [
        {
            "bufferView" : 0,
            "componentType" : 5126,
            "count" : 3376,
            "max" : [
                29.31390953063965,
                3.472015380859375,
                6.425161361694336
            ],
            "min" : [
                -26.574039459228516,
                -5.040348529815674,
                -23.899356842041016
            ],
            "type" : "VEC3"
        },
        {
            "bufferView" : 1,
            "componentType" : 5126,
            "count" : 3376,
            "type" : "VEC3"
        },
        {
            "bufferView" : 2,
            "componentType" : 5126,
            "count" : 3376,
            "type" : "VEC2"
        },
        {
            "bufferView" : 3,
            "componentType" : 5123,
            "count" : 5160,
            "type" : "SCALAR"
        },
        {
            "bufferView" : 4,
            "componentType" : 5126,
            "count" : 1696,
            "max" : [
                29.716960906982422,
                0.748908281326294,
                5.025402069091797
            ],
            "min" : [
                -0.2414379119873047,
                -0.748908281326294,
                -5.506101608276367
            ],
            "type" : "VEC3"
        },
        {
            "bufferView" : 5,
            "componentType" : 5126,
            "count" : 1696,
            "type" : "VEC3"
        },
        {
            "bufferView" : 6,
            "componentType" : 5126,
            "count" : 1696,
            "type" : "VEC2"
        },
        {
            "bufferView" : 7,
            "componentType" : 5123,
            "count" : 2664,
            "type" : "SCALAR"
        }
    ],
    "bufferViews" : [
        {
            "buffer" : 0,
            "byteLength" : 40512,
            "byteOffset" : 0
        },
        {
            "buffer" : 0,
            "byteLength" : 40512,
            "byteOffset" : 40512
        },
        {
            "buffer" : 0,
            "byteLength" : 27008,
            "byteOffset" : 81024
        },
        {
            "buffer" : 0,
            "byteLength" : 10320,
            "byteOffset" : 108032
        },
        {
            "buffer" : 0,
            "byteLength" : 20352,
            "byteOffset" : 118352
        },
        {
            "buffer" : 0,
            "byteLength" : 20352,
            "byteOffset" : 138704
        },
        {
            "buffer" : 0,
            "byteLength" : 13568,
            "byteOffset" : 159056
        },
        {
            "buffer" : 0,
            "byteLength" : 5328,
            "byteOffset" : 172624
        }
    ],
    "buffers" : [
        {
            "byteLength" : 177952,
            "uri" : "data:application/octet-stream;base64,"
        }
    ]
}
