{
    "asset" : {
        "generator" : "Khronos glTF Blender I/O v1.5.17",
        "version" : "2.0"
    },
    "scene" : 0,
    "scenes" : [
        {
            "name" : "Scene",
            "nodes" : [
                0
            ]
        }
    ],
    "nodes" : [
        {
            "mesh" : 0,
            "name" : "Plane.004",
            "rotation" : [
                0.7071068286895752,
                0,
                0,
                0.7071068286895752
            ],
            "scale" : [
                0.029546823352575302,
                0.1419559121131897,
                0.06761607527732849
            ]
        }
    ],
    "materials" : [
        {
            "doubleSided" : true,
            "name" : "Material.023",
            "pbrMetallicRoughness" : {
                "baseColorFactor" : [
                    0.038204375654459,
                    0.038204375654459,
                    0.038204375654459,
                    1
                ],
                "metallicFactor" : 0,
                "roughnessFactor" : 0.5
            }
        },
        {
            "doubleSided" : true,
            "name" : "Material.018",
            "pbrMetallicRoughness" : {
                "baseColorFactor" : [
                    0.11953846365213394,
                    0.43965715169906616,
                    0.06480327248573303,
                    1
                ],
                "metallicFactor" : 0,
                "roughnessFactor" : 0.5
            }
        },
        {
            "doubleSided" : true,
            "name" : "Material.019",
            "pbrMetallicRoughness" : {
                "baseColorFactor" : [
                    0.054480284452438354,
                    0.23839758336544037,
                    0.05286065861582756,
                    1
                ],
                "metallicFactor" : 0,
                "roughnessFactor" : 0.5
            }
        },
        {
            "doubleSided" : true,
            "name" : "Material.020",
            "pbrMetallicRoughness" : {
                "baseColorFactor" : [
                    0.05546921119093895,
                    0.3076762855052948,
                    0.04036761820316315,
                    1
                ],
                "metallicFactor" : 0,
                "roughnessFactor" : 0.5
            }
        },
        {
            "doubleSided" : true,
            "name" : "Material.021",
            "pbrMetallicRoughness" : {
                "baseColorFactor" : [
                    0.09305897355079651,
                    0.35153263807296753,
                    0.061246056109666824,
                    1
                ],
                "metallicFactor" : 0,
                "roughnessFactor" : 0.5
            }
        }
    ],
    "meshes" : [
        {
            "name" : "Plane.023",
            "primitives" : [
                {
                    "attributes" : {
                        "POSITION" : 0,
                        "NORMAL" : 1,
                        "TEXCOORD_0" : 2
                    },
                    "indices" : 3,
                    "material" : 0
                },
                {
                    "attributes" : {
                        "POSITION" : 4,
                        "NORMAL" : 5,
                        "TEXCOORD_0" : 6
                    },
                    "indices" : 7,
                    "material" : 1
                },
                {
                    "attributes" : {
                        "POSITION" : 8,
                        "NORMAL" : 9,
                        "TEXCOORD_0" : 10
                    },
                    "indices" : 11,
                    "material" : 2
                },
                {
                    "attributes" : {
                        "POSITION" : 12,
                        "NORMAL" : 13,
                        "TEXCOORD_0" : 14
                    },
                    "indices" : 15,
                    "material" : 3
                },
                {
                    "attributes" : {
                        "POSITION" : 16,
                        "NORMAL" : 17,
                        "TEXCOORD_0" : 18
                    },
                    "indices" : 19,
                    "material" : 4
                }
            ]
        }
    ],
    "accessors" : [
        {
            "bufferView" : 0,
            "componentType" : 5126,
            "count" : 1593,
            "max" : [
                81.8419189453125,
                0.259883314371109,
                10.406825065612793
            ],
            "min" : [
                -87.31718444824219,
                -0.44456085562705994,
                -18.102678298950195
            ],
            "type" : "VEC3"
        },
        {
            "bufferView" : 1,
            "componentType" : 5126,
            "count" : 1593,
            "type" : "VEC3"
        },
        {
            "bufferView" : 2,
            "componentType" : 5126,
            "count" : 1593,
            "type" : "VEC2"
        },
        {
            "bufferView" : 3,
            "componentType" : 5123,
            "count" : 2700,
            "type" : "SCALAR"
        },
        {
            "bufferView" : 4,
            "componentType" : 5126,
            "count" : 236,
            "max" : [
                67.29133605957031,
                1.256912350654602,
                10.3263521194458
            ],
            "min" : [
                -42.62690734863281,
                -0.45032361149787903,
                -7.655322551727295
            ],
            "type" : "VEC3"
        },
        {
            "bufferView" : 5,
            "componentType" : 5126,
            "count" : 236,
            "type" : "VEC3"
        },
        {
            "bufferView" : 6,
            "componentType" : 5126,
            "count" : 236,
            "type" : "VEC2"
        },
        {
            "bufferView" : 7,
            "componentType" : 5123,
            "count" : 426,
            "type" : "SCALAR"
        },
        {
            "bufferView" : 8,
            "componentType" : 5126,
            "count" : 28,
            "max" : [
                -24.530364990234375,
                0.9932856559753418,
                10.3263521194458
            ],
            "min" : [
                -42.638893127441406,
                -0.4556678235530853,
                0.977780282497406
            ],
            "type" : "VEC3"
        },
        {
            "bufferView" : 9,
            "componentType" : 5126,
            "count" : 28,
            "type" : "VEC3"
        },
        {
            "bufferView" : 10,
            "componentType" : 5126,
            "count" : 28,
            "type" : "VEC2"
        },
        {
            "bufferView" : 11,
            "componentType" : 5123,
            "count" : 42,
            "type" : "SCALAR"
        },
        {
            "bufferView" : 12,
            "componentType" : 5126,
            "count" : 116,
            "max" : [
                -6.630889892578125,
                1.256912350654602,
                5.9321770668029785
            ],
            "min" : [
                -43.549285888671875,
                -0.4556678235530853,
                -3.568281412124634
            ],
            "type" : "VEC3"
        },
        {
            "bufferView" : 13,
            "componentType" : 5126,
            "count" : 116,
            "type" : "VEC3"
        },
        {
            "bufferView" : 14,
            "componentType" : 5126,
            "count" : 116,
            "type" : "VEC2"
        },
        {
            "bufferView" : 15,
            "componentType" : 5123,
            "count" : 180,
            "type" : "SCALAR"
        },
        {
            "bufferView" : 16,
            "componentType" : 5126,
            "count" : 88,
            "max" : [
                -7.257354736328125,
                1.256912350654602,
                1.2752084732055664
            ],
            "min" : [
                -26.005783081054688,
                -0.45032361149787903,
                -7.748000621795654
            ],
            "type" : "VEC3"
        },
        {
            "bufferView" : 17,
            "componentType" : 5126,
            "count" : 88,
            "type" : "VEC3"
        },
        {
            "bufferView" : 18,
            "componentType" : 5126,
            "count" : 88,
            "type" : "VEC2"
        },
        {
            "bufferView" : 19,
            "componentType" : 5123,
            "count" : 132,
            "type" : "SCALAR"
        }
    ],
    "bufferViews" : [
        {
            "buffer" : 0,
            "byteLength" : 19116,
            "byteOffset" : 0
        },
        {
            "buffer" : 0,
            "byteLength" : 19116,
            "byteOffset" : 19116
        },
        {
            "buffer" : 0,
            "byteLength" : 12744,
            "byteOffset" : 38232
        },
        {
            "buffer" : 0,
            "byteLength" : 5400,
            "byteOffset" : 50976
        },
        {
            "buffer" : 0,
            "byteLength" : 2832,
            "byteOffset" : 56376
        },
        {
            "buffer" : 0,
            "byteLength" : 2832,
            "byteOffset" : 59208
        },
        {
            "buffer" : 0,
            "byteLength" : 1888,
            "byteOffset" : 62040
        },
        {
            "buffer" : 0,
            "byteLength" : 852,
            "byteOffset" : 63928
        },
        {
            "buffer" : 0,
            "byteLength" : 336,
            "byteOffset" : 64780
        },
        {
            "buffer" : 0,
            "byteLength" : 336,
            "byteOffset" : 65116
        },
        {
            "buffer" : 0,
            "byteLength" : 224,
            "byteOffset" : 65452
        },
        {
            "buffer" : 0,
            "byteLength" : 84,
            "byteOffset" : 65676
        },
        {
            "buffer" : 0,
            "byteLength" : 1392,
            "byteOffset" : 65760
        },
        {
            "buffer" : 0,
            "byteLength" : 1392,
            "byteOffset" : 67152
        },
        {
            "buffer" : 0,
            "byteLength" : 928,
            "byteOffset" : 68544
        },
        {
            "buffer" : 0,
            "byteLength" : 360,
            "byteOffset" : 69472
        },
        {
            "buffer" : 0,
            "byteLength" : 1056,
            "byteOffset" : 69832
        },
        {
            "buffer" : 0,
            "byteLength" : 1056,
            "byteOffset" : 70888
        },
        {
            "buffer" : 0,
            "byteLength" : 704,
            "byteOffset" : 71944
        },
        {
            "buffer" : 0,
            "byteLength" : 264,
            "byteOffset" : 72648
        }
    ],
    "buffers" : [
        {
            "byteLength" : 72912,
            "uri" : "data:application/octet-stream;base64,"
        }
    ]
}
