{
    "asset" : {
        "generator" : "Khronos glTF Blender I/O v1.5.17",
        "version" : "2.0"
    },
    "scene" : 0,
    "scenes" : [
        {
            "name" : "Scene",
            "nodes" : [
                0
            ]
        }
    ],
    "nodes" : [
        {
            "mesh" : 0,
            "name" : "Python Logo.004",
            "rotation" : [
                0.7071068286895752,
                0,
                0,
                0.7071068286895752
            ],
            "scale" : [
                0.12825772166252136,
                0.12825772166252136,
                0.12825772166252136
            ],
            "translation" : [
                0,
                -0.0731806755065918,
                0
            ]
        }
    ],
    "animations" : [
        {
            "channels" : [
                {
                    "sampler" : 0,
                    "target" : {
                        "node" : 0,
                        "path" : "translation"
                    }
                }
            ],
            "name" : "Python Logo.001Action.003",
            "samplers" : [
                {
                    "input" : 8,
                    "interpolation" : "LINEAR",
                    "output" : 9
                }
            ]
        }
    ],
    "materials" : [
        {
            "doubleSided" : true,
            "emissiveFactor" : [
                0.30000001192092896,
                0.09284066330753404,
                0.0045625651205605244
            ],
            "name" : "Yellow",
            "pbrMetallicRoughness" : {
                "baseColorFactor" : [
                    1,
                    0.3094688653945923,
                    0.015208549797534943,
                    1
                ],
                "metallicFactor" : 0,
                "roughnessFactor" : 0.5
            }
        },
        {
            "doubleSided" : true,
            "emissiveFactor" : [
                0.009214032062452304,
                0.03986050644956052,
                0.11137135769412332
            ],
            "name" : "Blue",
            "pbrMetallicRoughness" : {
                "baseColorFactor" : [
                    0.030713438987731934,
                    0.13286834955215454,
                    0.3712378442287445,
                    1
                ],
                "metallicFactor" : 0,
                "roughnessFactor" : 0.5
            }
        }
    ],
    "meshes" : [
        {
            "name" : "Plane.001",
            "primitives" : [
                {
                    "attributes" : {
                        "POSITION" : 0,
                        "NORMAL" : 1,
                        "TEXCOORD_0" : 2
                    },
                    "indices" : 3,
                    "material" : 0
                },
                {
                    "attributes" : {
                        "POSITION" : 4,
                        "NORMAL" : 5,
                        "TEXCOORD_0" : 6
                    },
                    "indices" : 7,
                    "material" : 1
                }
            ]
        }
    ],
    "accessors" : [
        {
            "bufferView" : 0,
            "componentType" : 5126,
            "count" : 1026,
            "max" : [
                11.862738609313965,
                1.0854393243789673,
                11.780364990234375
            ],
            "min" : [
                -5.698834419250488,
                -1.0854390859603882,
                -5.81258487701416
            ],
            "type" : "VEC3"
        },
        {
            "bufferView" : 1,
            "componentType" : 5126,
            "count" : 1026,
            "type" : "VEC3"
        },
        {
            "bufferView" : 2,
            "componentType" : 5126,
            "count" : 1026,
            "type" : "VEC2"
        },
        {
            "bufferView" : 3,
            "componentType" : 5123,
            "count" : 1836,
            "type" : "SCALAR"
        },
        {
            "bufferView" : 4,
            "componentType" : 5126,
            "count" : 967,
            "max" : [
                5.698835372924805,
                1.0854393243789673,
                5.812587738037109
            ],
            "min" : [
                -11.862737655639648,
                -1.0854390859603882,
                -11.78036117553711
            ],
            "type" : "VEC3"
        },
        {
            "bufferView" : 5,
            "componentType" : 5126,
            "count" : 967,
            "type" : "VEC3"
        },
        {
            "bufferView" : 6,
            "componentType" : 5126,
            "count" : 967,
            "type" : "VEC2"
        },
        {
            "bufferView" : 7,
            "componentType" : 5123,
            "count" : 1836,
            "type" : "SCALAR"
        },
        {
            "bufferView" : 8,
            "componentType" : 5126,
            "count" : 201,
            "max" : [
                8.333333333333334
            ],
            "min" : [
                0
            ],
            "type" : "SCALAR"
        },
        {
            "bufferView" : 9,
            "componentType" : 5126,
            "count" : 201,
            "type" : "VEC3"
        }
    ],
    "bufferViews" : [
        {
            "buffer" : 0,
            "byteLength" : 12312,
            "byteOffset" : 0
        },
        {
            "buffer" : 0,
            "byteLength" : 12312,
            "byteOffset" : 12312
        },
        {
            "buffer" : 0,
            "byteLength" : 8208,
            "byteOffset" : 24624
        },
        {
            "buffer" : 0,
            "byteLength" : 3672,
            "byteOffset" : 32832
        },
        {
            "buffer" : 0,
            "byteLength" : 11604,
            "byteOffset" : 36504
        },
        {
            "buffer" : 0,
            "byteLength" : 11604,
            "byteOffset" : 48108
        },
        {
            "buffer" : 0,
            "byteLength" : 7736,
            "byteOffset" : 59712
        },
        {
            "buffer" : 0,
            "byteLength" : 3672,
            "byteOffset" : 67448
        },
        {
            "buffer" : 0,
            "byteLength" : 804,
            "byteOffset" : 71120
        },
        {
            "buffer" : 0,
            "byteLength" : 2412,
            "byteOffset" : 71924
        }
    ],
    "buffers" : [
        {
            "byteLength" : 74336,
            "uri" : "data:application/octet-stream;base64,"
        }
    ]
}
