{
    "asset" : {
        "generator" : "Khronos glTF Blender I/O v1.5.17",
        "version" : "2.0"
    },
    "scene" : 0,
    "scenes" : [
        {
            "name" : "Scene",
            "nodes" : [
                0
            ]
        }
    ],
    "nodes" : [
        {
            "mesh" : 0,
            "name" : "Computer Monitor",
            "rotation" : [
                0,
                0.26163485646247864,
                0,
                0.9651669263839722
            ],
            "scale" : [
                0.24109026789665222,
                0.13708055019378662,
                0.014907688833773136
            ]
        }
    ],
    "materials" : [
        {
            "doubleSided" : true,
            "name" : "Material.064",
            "pbrMetallicRoughness" : {
                "baseColorFactor" : [
                    0.033092305064201355,
                    0.033092305064201355,
                    0.033092305064201355,
                    1
                ],
                "metallicFactor" : 0,
                "roughnessFactor" : 0.5
            }
        },
        {
            "doubleSided" : true,
            "emissiveFactor" : [
                0.002578215440735221,
                0.05910688638687134,
                0.13284733891487122
            ],
            "name" : "Material.091",
            "pbrMetallicRoughness" : {
                "baseColorFactor" : [
                    0.004105746280401945,
                    0.19502510130405426,
                    0.5324398875236511,
                    1
                ],
                "metallicFactor" : 0,
                "roughnessFactor" : 0.5
            }
        },
        {
            "doubleSided" : true,
            "name" : "Material.082",
            "pbrMetallicRoughness" : {
                "baseColorFactor" : [
                    0.2919631600379944,
                    0.2919631600379944,
                    0.2919631600379944,
                    1
                ],
                "metallicFactor" : 0,
                "roughnessFactor" : 0.5
            }
        }
    ],
    "meshes" : [
        {
            "name" : "Cube.263",
            "primitives" : [
                {
                    "attributes" : {
                        "POSITION" : 0,
                        "NORMAL" : 1,
                        "TEXCOORD_0" : 2
                    },
                    "indices" : 3,
                    "material" : 0
                },
                {
                    "attributes" : {
                        "POSITION" : 4,
                        "NORMAL" : 5,
                        "TEXCOORD_0" : 6
                    },
                    "indices" : 7,
                    "material" : 1
                },
                {
                    "attributes" : {
                        "POSITION" : 8,
                        "NORMAL" : 9,
                        "TEXCOORD_0" : 10
                    },
                    "indices" : 11,
                    "material" : 2
                }
            ]
        }
    ],
    "accessors" : [
        {
            "bufferView" : 0,
            "componentType" : 5126,
            "count" : 1233,
            "max" : [
                1.6654106378555298,
                2.0431950092315674,
                12.785904884338379
            ],
            "min" : [
                -1.2137036323547363,
                -0.41872692108154297,
                -18.198131561279297
            ],
            "type" : "VEC3"
        },
        {
            "bufferView" : 1,
            "componentType" : 5126,
            "count" : 1233,
            "type" : "VEC3"
        },
        {
            "bufferView" : 2,
            "componentType" : 5126,
            "count" : 1233,
            "type" : "VEC2"
        },
        {
            "bufferView" : 3,
            "componentType" : 5123,
            "count" : 2856,
            "type" : "SCALAR"
        },
        {
            "bufferView" : 4,
            "componentType" : 5126,
            "count" : 4,
            "max" : [
                0.8053126931190491,
                1.9590595960617065,
                -12.204877853393555
            ],
            "min" : [
                -1.0815004110336304,
                0.12733042240142822,
                -12.204877853393555
            ],
            "type" : "VEC3"
        },
        {
            "bufferView" : 5,
            "componentType" : 5126,
            "count" : 4,
            "type" : "VEC3"
        },
        {
            "bufferView" : 6,
            "componentType" : 5126,
            "count" : 4,
            "type" : "VEC2"
        },
        {
            "bufferView" : 7,
            "componentType" : 5123,
            "count" : 6,
            "type" : "SCALAR"
        },
        {
            "bufferView" : 8,
            "componentType" : 5126,
            "count" : 2240,
            "max" : [
                1.4819611310958862,
                -0.08015644550323486,
                11.355391502380371
            ],
            "min" : [
                -1.1457710266113281,
                -0.27908778190612793,
                2.2079782485961914
            ],
            "type" : "VEC3"
        },
        {
            "bufferView" : 9,
            "componentType" : 5126,
            "count" : 2240,
            "type" : "VEC3"
        },
        {
            "bufferView" : 10,
            "componentType" : 5126,
            "count" : 2240,
            "type" : "VEC2"
        },
        {
            "bufferView" : 11,
            "componentType" : 5123,
            "count" : 3522,
            "type" : "SCALAR"
        }
    ],
    "bufferViews" : [
        {
            "buffer" : 0,
            "byteLength" : 14796,
            "byteOffset" : 0
        },
        {
            "buffer" : 0,
            "byteLength" : 14796,
            "byteOffset" : 14796
        },
        {
            "buffer" : 0,
            "byteLength" : 9864,
            "byteOffset" : 29592
        },
        {
            "buffer" : 0,
            "byteLength" : 5712,
            "byteOffset" : 39456
        },
        {
            "buffer" : 0,
            "byteLength" : 48,
            "byteOffset" : 45168
        },
        {
            "buffer" : 0,
            "byteLength" : 48,
            "byteOffset" : 45216
        },
        {
            "buffer" : 0,
            "byteLength" : 32,
            "byteOffset" : 45264
        },
        {
            "buffer" : 0,
            "byteLength" : 12,
            "byteOffset" : 45296
        },
        {
            "buffer" : 0,
            "byteLength" : 26880,
            "byteOffset" : 45308
        },
        {
            "buffer" : 0,
            "byteLength" : 26880,
            "byteOffset" : 72188
        },
        {
            "buffer" : 0,
            "byteLength" : 17920,
            "byteOffset" : 99068
        },
        {
            "buffer" : 0,
            "byteLength" : 7044,
            "byteOffset" : 116988
        }
    ],
    "buffers" : [
        {
            "byteLength" : 124032,
            "uri" : "data:application/octet-stream;base64,"
        }
    ]
}
