{
    "asset" : {
        "generator" : "Khronos glTF Blender I/O v1.5.17",
        "version" : "2.0"
    },
    "scene" : 0,
    "scenes" : [
        {
            "name" : "Scene",
            "nodes" : [
                0
            ]
        }
    ],
    "nodes" : [
        {
            "mesh" : 0,
            "name" : "Butter Bot.002",
            "rotation" : [
                0,
                -0.2836289703845978,
                0,
                0.9589341282844543
            ],
            "scale" : [
                0.012178337201476097,
                0.012178337201476097,
                0.012178337201476097
            ]
        }
    ],
    "materials" : [
        {
            "doubleSided" : true,
            "name" : "Material.074",
            "pbrMetallicRoughness" : {
                "baseColorFactor" : [
                    0.2632729113101959,
                    0.2632729113101959,
                    0.2632729113101959,
                    1
                ],
                "metallicFactor" : 0,
                "roughnessFactor" : 0.5
            }
        },
        {
            "doubleSided" : true,
            "name" : "Material.075",
            "pbrMetallicRoughness" : {
                "baseColorFactor" : [
                    0.05343802645802498,
                    0.05343802645802498,
                    0.05343802645802498,
                    1
                ],
                "metallicFactor" : 0,
                "roughnessFactor" : 0.5
            }
        },
        {
            "doubleSided" : true,
            "name" : "Material.076",
            "pbrMetallicRoughness" : {
                "baseColorFactor" : [
                    0.003934149164706469,
                    0.003934149164706469,
                    0.003934149164706469,
                    1
                ],
                "metallicFactor" : 0,
                "roughnessFactor" : 0.5
            }
        },
        {
            "doubleSided" : true,
            "emissiveFactor" : [
                0.0030601494945585728,
                0.5729243755340576,
                1
            ],
            "name" : "Material.077",
            "pbrMetallicRoughness" : {
                "baseColorFactor" : [
                    0.016184106469154358,
                    0.4251377284526825,
                    0.8000000715255737,
                    1
                ],
                "metallicFactor" : 0,
                "roughnessFactor" : 0.5
            }
        },
        {
            "doubleSided" : true,
            "emissiveFactor" : [
                1,
                0.007182056084275246,
                0.00891780573874712
            ],
            "name" : "Material.078",
            "pbrMetallicRoughness" : {
                "baseColorFactor" : [
                    0.6146150827407837,
                    0.011108841747045517,
                    0.009490801021456718,
                    1
                ],
                "metallicFactor" : 0,
                "roughnessFactor" : 0.5
            }
        },
        {
            "doubleSided" : true,
            "name" : "Material.079",
            "pbrMetallicRoughness" : {
                "baseColorFactor" : [
                    0.6146148443222046,
                    0.6061960458755493,
                    0.024549292400479317,
                    1
                ],
                "metallicFactor" : 0,
                "roughnessFactor" : 0.5
            }
        },
        {
            "doubleSided" : true,
            "name" : "Material.080",
            "pbrMetallicRoughness" : {
                "baseColorFactor" : [
                    0.8000000715255737,
                    0.009299807250499725,
                    0.006231686100363731,
                    1
                ],
                "metallicFactor" : 0,
                "roughnessFactor" : 0.5
            }
        },
        {
            "doubleSided" : true,
            "name" : "Material.081",
            "pbrMetallicRoughness" : {
                "baseColorFactor" : [
                    0.7999997735023499,
                    0.31512683629989624,
                    0.014851924031972885,
                    1
                ],
                "metallicFactor" : 0,
                "roughnessFactor" : 0.5
            }
        }
    ],
    "meshes" : [
        {
            "name" : "Sphere.002",
            "primitives" : [
                {
                    "attributes" : {
                        "POSITION" : 0,
                        "NORMAL" : 1,
                        "TEXCOORD_0" : 2
                    },
                    "indices" : 3,
                    "material" : 0
                },
                {
                    "attributes" : {
                        "POSITION" : 4,
                        "NORMAL" : 5,
                        "TEXCOORD_0" : 6
                    },
                    "indices" : 7,
                    "material" : 1
                },
                {
                    "attributes" : {
                        "POSITION" : 8,
                        "NORMAL" : 9,
                        "TEXCOORD_0" : 10
                    },
                    "indices" : 11,
                    "material" : 2
                },
                {
                    "attributes" : {
                        "POSITION" : 12,
                        "NORMAL" : 13,
                        "TEXCOORD_0" : 14
                    },
                    "indices" : 15,
                    "material" : 3
                },
                {
                    "attributes" : {
                        "POSITION" : 16,
                        "NORMAL" : 17,
                        "TEXCOORD_0" : 18
                    },
                    "indices" : 19,
                    "material" : 4
                },
                {
                    "attributes" : {
                        "POSITION" : 20,
                        "NORMAL" : 21,
                        "TEXCOORD_0" : 22
                    },
                    "indices" : 23,
                    "material" : 5
                },
                {
                    "attributes" : {
                        "POSITION" : 24,
                        "NORMAL" : 25,
                        "TEXCOORD_0" : 26
                    },
                    "indices" : 27,
                    "material" : 6
                },
                {
                    "attributes" : {
                        "POSITION" : 28,
                        "NORMAL" : 29,
                        "TEXCOORD_0" : 30
                    },
                    "indices" : 31,
                    "material" : 7
                }
            ]
        }
    ],
    "accessors" : [
        {
            "bufferView" : 0,
            "componentType" : 5126,
            "count" : 3581,
            "max" : [
                9.786924362182617,
                16.851030349731445,
                7.27386999130249
            ],
            "min" : [
                -9.708789825439453,
                -12.154767990112305,
                -7.643883228302002
            ],
            "type" : "VEC3"
        },
        {
            "bufferView" : 1,
            "componentType" : 5126,
            "count" : 3581,
            "type" : "VEC3"
        },
        {
            "bufferView" : 2,
            "componentType" : 5126,
            "count" : 3581,
            "type" : "VEC2"
        },
        {
            "bufferView" : 3,
            "componentType" : 5123,
            "count" : 7320,
            "type" : "SCALAR"
        },
        {
            "bufferView" : 4,
            "componentType" : 5126,
            "count" : 2057,
            "max" : [
                8.923568725585938,
                18.028024673461914,
                10.9938383102417
            ],
            "min" : [
                -8.898757934570312,
                -12.140588760375977,
                -7.640400409698486
            ],
            "type" : "VEC3"
        },
        {
            "bufferView" : 5,
            "componentType" : 5126,
            "count" : 2057,
            "type" : "VEC3"
        },
        {
            "bufferView" : 6,
            "componentType" : 5126,
            "count" : 2057,
            "type" : "VEC2"
        },
        {
            "bufferView" : 7,
            "componentType" : 5123,
            "count" : 4275,
            "type" : "SCALAR"
        },
        {
            "bufferView" : 8,
            "componentType" : 5126,
            "count" : 1170,
            "max" : [
                8.684948921203613,
                12.81944465637207,
                9.32141399383545
            ],
            "min" : [
                -8.498678207397461,
                -13.149055480957031,
                -8.811845779418945
            ],
            "type" : "VEC3"
        },
        {
            "bufferView" : 9,
            "componentType" : 5126,
            "count" : 1170,
            "type" : "VEC3"
        },
        {
            "bufferView" : 10,
            "componentType" : 5126,
            "count" : 1170,
            "type" : "VEC2"
        },
        {
            "bufferView" : 11,
            "componentType" : 5123,
            "count" : 2490,
            "type" : "SCALAR"
        },
        {
            "bufferView" : 12,
            "componentType" : 5126,
            "count" : 160,
            "max" : [
                1.6217176914215088,
                11.785430908203125,
                8.864340782165527
            ],
            "min" : [
                -1.4981858730316162,
                8.66552734375,
                8.587870597839355
            ],
            "type" : "VEC3"
        },
        {
            "bufferView" : 13,
            "componentType" : 5126,
            "count" : 160,
            "type" : "VEC3"
        },
        {
            "bufferView" : 14,
            "componentType" : 5126,
            "count" : 160,
            "type" : "VEC2"
        },
        {
            "bufferView" : 15,
            "componentType" : 5123,
            "count" : 282,
            "type" : "SCALAR"
        },
        {
            "bufferView" : 16,
            "componentType" : 5126,
            "count" : 326,
            "max" : [
                5.761482238769531,
                19.234289169311523,
                6.522680759429932
            ],
            "min" : [
                3.8628487586975098,
                17.45587158203125,
                4.529999732971191
            ],
            "type" : "VEC3"
        },
        {
            "bufferView" : 17,
            "componentType" : 5126,
            "count" : 326,
            "type" : "VEC3"
        },
        {
            "bufferView" : 18,
            "componentType" : 5126,
            "count" : 326,
            "type" : "VEC2"
        },
        {
            "bufferView" : 19,
            "componentType" : 5123,
            "count" : 474,
            "type" : "SCALAR"
        },
        {
            "bufferView" : 20,
            "componentType" : 5126,
            "count" : 3074,
            "max" : [
                -3.275364637374878,
                20.987550735473633,
                5.782907962799072
            ],
            "min" : [
                -4.421135425567627,
                15.97614860534668,
                -0.4344543218612671
            ],
            "type" : "VEC3"
        },
        {
            "bufferView" : 21,
            "componentType" : 5126,
            "count" : 3074,
            "type" : "VEC3"
        },
        {
            "bufferView" : 22,
            "componentType" : 5126,
            "count" : 3074,
            "type" : "VEC2"
        },
        {
            "bufferView" : 23,
            "componentType" : 5123,
            "count" : 4614,
            "type" : "SCALAR"
        },
        {
            "bufferView" : 24,
            "componentType" : 5126,
            "count" : 3057,
            "max" : [
                -0.4182421863079071,
                21.504539489746094,
                5.805492877960205
            ],
            "min" : [
                -1.8459808826446533,
                15.97614860534668,
                -1.101232886314392
            ],
            "type" : "VEC3"
        },
        {
            "bufferView" : 25,
            "componentType" : 5126,
            "count" : 3057,
            "type" : "VEC3"
        },
        {
            "bufferView" : 26,
            "componentType" : 5126,
            "count" : 3057,
            "type" : "VEC2"
        },
        {
            "bufferView" : 27,
            "componentType" : 5123,
            "count" : 4587,
            "type" : "SCALAR"
        },
        {
            "bufferView" : 28,
            "componentType" : 5126,
            "count" : 964,
            "max" : [
                7.715906620025635,
                -9.209793090820312,
                5.214261531829834
            ],
            "min" : [
                -7.592374324798584,
                -11.667339324951172,
                -7.167150974273682
            ],
            "type" : "VEC3"
        },
        {
            "bufferView" : 29,
            "componentType" : 5126,
            "count" : 964,
            "type" : "VEC3"
        },
        {
            "bufferView" : 30,
            "componentType" : 5126,
            "count" : 964,
            "type" : "VEC2"
        },
        {
            "bufferView" : 31,
            "componentType" : 5123,
            "count" : 1704,
            "type" : "SCALAR"
        }
    ],
    "bufferViews" : [
        {
            "buffer" : 0,
            "byteLength" : 42972,
            "byteOffset" : 0
        },
        {
            "buffer" : 0,
            "byteLength" : 42972,
            "byteOffset" : 42972
        },
        {
            "buffer" : 0,
            "byteLength" : 28648,
            "byteOffset" : 85944
        },
        {
            "buffer" : 0,
            "byteLength" : 14640,
            "byteOffset" : 114592
        },
        {
            "buffer" : 0,
            "byteLength" : 24684,
            "byteOffset" : 129232
        },
        {
            "buffer" : 0,
            "byteLength" : 24684,
            "byteOffset" : 153916
        },
        {
            "buffer" : 0,
            "byteLength" : 16456,
            "byteOffset" : 178600
        },
        {
            "buffer" : 0,
            "byteLength" : 8550,
            "byteOffset" : 195056
        },
        {
            "buffer" : 0,
            "byteLength" : 14040,
            "byteOffset" : 203608
        },
        {
            "buffer" : 0,
            "byteLength" : 14040,
            "byteOffset" : 217648
        },
        {
            "buffer" : 0,
            "byteLength" : 9360,
            "byteOffset" : 231688
        },
        {
            "buffer" : 0,
            "byteLength" : 4980,
            "byteOffset" : 241048
        },
        {
            "buffer" : 0,
            "byteLength" : 1920,
            "byteOffset" : 246028
        },
        {
            "buffer" : 0,
            "byteLength" : 1920,
            "byteOffset" : 247948
        },
        {
            "buffer" : 0,
            "byteLength" : 1280,
            "byteOffset" : 249868
        },
        {
            "buffer" : 0,
            "byteLength" : 564,
            "byteOffset" : 251148
        },
        {
            "buffer" : 0,
            "byteLength" : 3912,
            "byteOffset" : 251712
        },
        {
            "buffer" : 0,
            "byteLength" : 3912,
            "byteOffset" : 255624
        },
        {
            "buffer" : 0,
            "byteLength" : 2608,
            "byteOffset" : 259536
        },
        {
            "buffer" : 0,
            "byteLength" : 948,
            "byteOffset" : 262144
        },
        {
            "buffer" : 0,
            "byteLength" : 36888,
            "byteOffset" : 263092
        },
        {
            "buffer" : 0,
            "byteLength" : 36888,
            "byteOffset" : 299980
        },
        {
            "buffer" : 0,
            "byteLength" : 24592,
            "byteOffset" : 336868
        },
        {
            "buffer" : 0,
            "byteLength" : 9228,
            "byteOffset" : 361460
        },
        {
            "buffer" : 0,
            "byteLength" : 36684,
            "byteOffset" : 370688
        },
        {
            "buffer" : 0,
            "byteLength" : 36684,
            "byteOffset" : 407372
        },
        {
            "buffer" : 0,
            "byteLength" : 24456,
            "byteOffset" : 444056
        },
        {
            "buffer" : 0,
            "byteLength" : 9174,
            "byteOffset" : 468512
        },
        {
            "buffer" : 0,
            "byteLength" : 11568,
            "byteOffset" : 477688
        },
        {
            "buffer" : 0,
            "byteLength" : 11568,
            "byteOffset" : 489256
        },
        {
            "buffer" : 0,
            "byteLength" : 7712,
            "byteOffset" : 500824
        },
        {
            "buffer" : 0,
            "byteLength" : 3408,
            "byteOffset" : 508536
        }
    ],
    "buffers" : [
        {
            "byteLength" : 511944,
            "uri" : "data:application/octet-stream;base64,"
        }
    ]
}
