{
    "asset" : {
        "generator" : "Khronos glTF Blender I/O v1.5.17",
        "version" : "2.0"
    },
    "scene" : 0,
    "scenes" : [
        {
            "name" : "Scene",
            "nodes" : [
                0
            ]
        }
    ],
    "nodes" : [
        {
            "mesh" : 0,
            "name" : "Bill Board.001",
            "rotation" : [
                0.7071068286895752,
                0,
                0,
                0.7071068286895752
            ],
            "scale" : [
                0.3534582555294037,
                0.28717511892318726,
                0.2649703919887543
            ]
        }
    ],
    "materials" : [
        {
            "doubleSided" : true,
            "name" : "Material.065",
            "pbrMetallicRoughness" : {
                "baseColorFactor" : [
                    0.019602082669734955,
                    0.019602082669734955,
                    0.019602082669734955,
                    1
                ],
                "metallicFactor" : 0,
                "roughnessFactor" : 0.5
            }
        },
        {
            "doubleSided" : true,
            "name" : "Material.067",
            "pbrMetallicRoughness" : {
                "baseColorTexture" : {
                    "index" : 0
                },
                "metallicFactor" : 0,
                "roughnessFactor" : 0.5
            }
        },
        {
            "doubleSided" : true,
            "name" : "Material.068",
            "pbrMetallicRoughness" : {
                "baseColorFactor" : [
                    0.053434696048498154,
                    0.053434696048498154,
                    0.053434696048498154,
                    1
                ],
                "metallicFactor" : 0,
                "roughnessFactor" : 0.5
            }
        },
        {
            "doubleSided" : true,
            "name" : "Material.069",
            "pbrMetallicRoughness" : {
                "baseColorFactor" : [
                    0.05086483433842659,
                    0.05086483433842659,
                    0.05086483433842659,
                    1
                ],
                "metallicFactor" : 0,
                "roughnessFactor" : 0.5
            }
        },
        {
            "doubleSided" : true,
            "name" : "Material.070",
            "pbrMetallicRoughness" : {
                "baseColorFactor" : [
                    0.21992452442646027,
                    0.21992452442646027,
                    0.21992452442646027,
                    1
                ],
                "metallicFactor" : 0,
                "roughnessFactor" : 0.5
            }
        },
        {
            "doubleSided" : true,
            "emissiveFactor" : [
                1,
                1,
                0.44713165672237665
            ],
            "name" : "Material.071",
            "pbrMetallicRoughness" : {
                "baseColorFactor" : [
                    0.7315409779548645,
                    0.8000000715255737,
                    0.12065697461366653,
                    1
                ],
                "metallicFactor" : 0,
                "roughnessFactor" : 0.5
            }
        }
    ],
    "meshes" : [
        {
            "name" : "Plane.014",
            "primitives" : [
                {
                    "attributes" : {
                        "POSITION" : 0,
                        "NORMAL" : 1,
                        "TEXCOORD_0" : 2
                    },
                    "indices" : 3,
                    "material" : 0
                },
                {
                    "attributes" : {
                        "POSITION" : 4,
                        "NORMAL" : 5,
                        "TEXCOORD_0" : 6
                    },
                    "indices" : 7,
                    "material" : 1
                },
                {
                    "attributes" : {
                        "POSITION" : 8,
                        "NORMAL" : 9,
                        "TEXCOORD_0" : 10
                    },
                    "indices" : 11,
                    "material" : 2
                },
                {
                    "attributes" : {
                        "POSITION" : 12,
                        "NORMAL" : 13,
                        "TEXCOORD_0" : 14
                    },
                    "indices" : 15,
                    "material" : 3
                },
                {
                    "attributes" : {
                        "POSITION" : 16,
                        "NORMAL" : 17,
                        "TEXCOORD_0" : 18
                    },
                    "indices" : 19,
                    "material" : 4
                },
                {
                    "attributes" : {
                        "POSITION" : 20,
                        "NORMAL" : 21,
                        "TEXCOORD_0" : 22
                    },
                    "indices" : 23,
                    "material" : 5
                }
            ]
        }
    ],
    "textures" : [
        {
            "sampler" : 0,
            "source" : 0
        }
    ],
    "images" : [
        {
            "bufferView" : 8,
            "mimeType" : "image/jpeg",
            "name" : "old_floor_board_crop"
        }
    ],
    "accessors" : [
        {
            "bufferView" : 0,
            "componentType" : 5126,
            "count" : 133,
            "max" : [
                1.302422046661377,
                0.05971234291791916,
                0.4826340079307556
            ],
            "min" : [
                -1.327751874923706,
                -0.43239256739616394,
                -1.6370298862457275
            ],
            "type" : "VEC3"
        },
        {
            "bufferView" : 1,
            "componentType" : 5126,
            "count" : 133,
            "type" : "VEC3"
        },
        {
            "bufferView" : 2,
            "componentType" : 5126,
            "count" : 133,
            "type" : "VEC2"
        },
        {
            "bufferView" : 3,
            "componentType" : 5123,
            "count" : 291,
            "type" : "SCALAR"
        },
        {
            "bufferView" : 4,
            "componentType" : 5126,
            "count" : 4,
            "max" : [
                1.302422046661377,
                0.05971234291791916,
                0.4826340079307556
            ],
            "min" : [
                -1.327751874923706,
                0.05971234291791916,
                -1.6370298862457275
            ],
            "type" : "VEC3"
        },
        {
            "bufferView" : 5,
            "componentType" : 5126,
            "count" : 4,
            "type" : "VEC3"
        },
        {
            "bufferView" : 6,
            "componentType" : 5126,
            "count" : 4,
            "type" : "VEC2"
        },
        {
            "bufferView" : 7,
            "componentType" : 5123,
            "count" : 6,
            "type" : "SCALAR"
        },
        {
            "bufferView" : 9,
            "componentType" : 5126,
            "count" : 160,
            "max" : [
                0.13607212901115417,
                -0.13078409433364868,
                3.8894569873809814
            ],
            "min" : [
                -0.07996144890785217,
                -0.3966805934906006,
                -0.426469624042511
            ],
            "type" : "VEC3"
        },
        {
            "bufferView" : 10,
            "componentType" : 5126,
            "count" : 160,
            "type" : "VEC3"
        },
        {
            "bufferView" : 11,
            "componentType" : 5126,
            "count" : 160,
            "type" : "VEC2"
        },
        {
            "bufferView" : 12,
            "componentType" : 5123,
            "count" : 282,
            "type" : "SCALAR"
        },
        {
            "bufferView" : 13,
            "componentType" : 5126,
            "count" : 977,
            "max" : [
                1.34462571144104,
                0.6681513786315918,
                0.548649251461029
            ],
            "min" : [
                -1.3129029273986816,
                0.0019309446215629578,
                0.4763416647911072
            ],
            "type" : "VEC3"
        },
        {
            "bufferView" : 14,
            "componentType" : 5126,
            "count" : 977,
            "type" : "VEC3"
        },
        {
            "bufferView" : 15,
            "componentType" : 5126,
            "count" : 977,
            "type" : "VEC2"
        },
        {
            "bufferView" : 16,
            "componentType" : 5123,
            "count" : 2055,
            "type" : "SCALAR"
        },
        {
            "bufferView" : 17,
            "componentType" : 5126,
            "count" : 48,
            "max" : [
                0.8423896431922913,
                0.7766939997673035,
                0.552495539188385
            ],
            "min" : [
                -0.7818654775619507,
                0.6274421811103821,
                0.4006200432777405
            ],
            "type" : "VEC3"
        },
        {
            "bufferView" : 18,
            "componentType" : 5126,
            "count" : 48,
            "type" : "VEC3"
        },
        {
            "bufferView" : 19,
            "componentType" : 5126,
            "count" : 48,
            "type" : "VEC2"
        },
        {
            "bufferView" : 20,
            "componentType" : 5123,
            "count" : 84,
            "type" : "SCALAR"
        },
        {
            "bufferView" : 21,
            "componentType" : 5126,
            "count" : 16,
            "max" : [
                0.8423896431922913,
                0.7330482006072998,
                0.49532991647720337
            ],
            "min" : [
                -0.7818654775619507,
                0.6274421811103821,
                0.4006200432777405
            ],
            "type" : "VEC3"
        },
        {
            "bufferView" : 22,
            "componentType" : 5126,
            "count" : 16,
            "type" : "VEC3"
        },
        {
            "bufferView" : 23,
            "componentType" : 5126,
            "count" : 16,
            "type" : "VEC2"
        },
        {
            "bufferView" : 24,
            "componentType" : 5123,
            "count" : 36,
            "type" : "SCALAR"
        }
    ],
    "bufferViews" : [
        {
            "buffer" : 0,
            "byteLength" : 1596,
            "byteOffset" : 0
        },
        {
            "buffer" : 0,
            "byteLength" : 1596,
            "byteOffset" : 1596
        },
        {
            "buffer" : 0,
            "byteLength" : 1064,
            "byteOffset" : 3192
        },
        {
            "buffer" : 0,
            "byteLength" : 582,
            "byteOffset" : 4256
        },
        {
            "buffer" : 0,
            "byteLength" : 48,
            "byteOffset" : 4840
        },
        {
            "buffer" : 0,
            "byteLength" : 48,
            "byteOffset" : 4888
        },
        {
            "buffer" : 0,
            "byteLength" : 32,
            "byteOffset" : 4936
        },
        {
            "buffer" : 0,
            "byteLength" : 12,
            "byteOffset" : 4968
        },
        {
            "buffer" : 0,
            "byteLength" : 945520,
            "byteOffset" : 4980
        },
        {
            "buffer" : 0,
            "byteLength" : 1920,
            "byteOffset" : 950500
        },
        {
            "buffer" : 0,
            "byteLength" : 1920,
            "byteOffset" : 952420
        },
        {
            "buffer" : 0,
            "byteLength" : 1280,
            "byteOffset" : 954340
        },
        {
            "buffer" : 0,
            "byteLength" : 564,
            "byteOffset" : 955620
        },
        {
            "buffer" : 0,
            "byteLength" : 11724,
            "byteOffset" : 956184
        },
        {
            "buffer" : 0,
            "byteLength" : 11724,
            "byteOffset" : 967908
        },
        {
            "buffer" : 0,
            "byteLength" : 7816,
            "byteOffset" : 979632
        },
        {
            "buffer" : 0,
            "byteLength" : 4110,
            "byteOffset" : 987448
        },
        {
            "buffer" : 0,
            "byteLength" : 576,
            "byteOffset" : 991560
        },
        {
            "buffer" : 0,
            "byteLength" : 576,
            "byteOffset" : 992136
        },
        {
            "buffer" : 0,
            "byteLength" : 384,
            "byteOffset" : 992712
        },
        {
            "buffer" : 0,
            "byteLength" : 168,
            "byteOffset" : 993096
        },
        {
            "buffer" : 0,
            "byteLength" : 192,
            "byteOffset" : 993264
        },
        {
            "buffer" : 0,
            "byteLength" : 192,
            "byteOffset" : 993456
        },
        {
            "buffer" : 0,
            "byteLength" : 128,
            "byteOffset" : 993648
        },
        {
            "buffer" : 0,
            "byteLength" : 72,
            "byteOffset" : 993776
        }
    ],
    "samplers" : [
        {
            "magFilter" : 9729,
            "minFilter" : 9987
        }
    ],
    "buffers" : [
        {
            "byteLength" : 993848,
            "uri" : "data:application/octet-stream;base64,"
        }
    ]
}
