{
    "asset" : {
        "generator" : "Khronos glTF Blender I/O v1.5.17",
        "version" : "2.0"
    },
    "scene" : 0,
    "scenes" : [
        {
            "name" : "Scene",
            "nodes" : [
                0,
                1,
                2
            ]
        }
    ],
    "nodes" : [
        {
            "mesh" : 0,
            "name" : "French Fries.005",
            "rotation" : [
                -0.9547488689422607,
                0,
                -0.297413170337677,
                9.691582363302587e-07
            ],
            "scale" : [
                0.06682131439447403,
                0.01928015425801277,
                0.022746320813894272
            ],
            "translation" : [
                -0.08894827961921692,
                -0.09732791781425476,
                -0.05326974391937256
            ]
        },
        {
            "mesh" : 1,
            "name" : "French Fries.006",
            "rotation" : [
                -0.9063105583190918,
                0,
                -0.4226122796535492,
                7.662366101612861e-07
            ],
            "scale" : [
                0.06682130694389343,
                0.01928015425801277,
                0.022746315225958824
            ],
            "translation" : [
                0.019061772152781487,
                -0.0716315358877182,
                -0.038573622703552246
            ]
        },
        {
            "mesh" : 2,
            "name" : "French Fries.007",
            "rotation" : [
                -0.998005747795105,
                0,
                -0.06312453746795654,
                1.2127711670473218e-06
            ],
            "scale" : [
                0.06682131439447403,
                0.01928015425801277,
                0.022746315225958824
            ],
            "translation" : [
                0.07050737738609314,
                -0.09732791781425476,
                0.061770081520080566
            ]
        }
    ],
    "materials" : [
        {
            "doubleSided" : true,
            "name" : "Material.018",
            "pbrMetallicRoughness" : {
                "baseColorFactor" : [
                    0.603852391242981,
                    0.007213339675217867,
                    0.022456487640738487,
                    1
                ],
                "metallicFactor" : 0,
                "roughnessFactor" : 0.5
            }
        },
        {
            "doubleSided" : true,
            "name" : "Material.019",
            "pbrMetallicRoughness" : {
                "baseColorFactor" : [
                    0.6104958653450012,
                    0.24228106439113617,
                    0,
                    1
                ],
                "metallicFactor" : 0,
                "roughnessFactor" : 0.5
            }
        }
    ],
    "meshes" : [
        {
            "name" : "Plane.149",
            "primitives" : [
                {
                    "attributes" : {
                        "POSITION" : 0,
                        "NORMAL" : 1,
                        "TEXCOORD_0" : 2
                    },
                    "indices" : 3,
                    "material" : 0
                },
                {
                    "attributes" : {
                        "POSITION" : 4,
                        "NORMAL" : 5,
                        "TEXCOORD_0" : 6
                    },
                    "indices" : 7,
                    "material" : 1
                }
            ]
        },
        {
            "name" : "Plane.150",
            "primitives" : [
                {
                    "attributes" : {
                        "POSITION" : 8,
                        "NORMAL" : 9,
                        "TEXCOORD_0" : 10
                    },
                    "indices" : 3,
                    "material" : 0
                },
                {
                    "attributes" : {
                        "POSITION" : 11,
                        "NORMAL" : 12,
                        "TEXCOORD_0" : 13
                    },
                    "indices" : 7,
                    "material" : 1
                }
            ]
        },
        {
            "name" : "Plane.151",
            "primitives" : [
                {
                    "attributes" : {
                        "POSITION" : 14,
                        "NORMAL" : 15,
                        "TEXCOORD_0" : 16
                    },
                    "indices" : 3,
                    "material" : 0
                },
                {
                    "attributes" : {
                        "POSITION" : 17,
                        "NORMAL" : 18,
                        "TEXCOORD_0" : 19
                    },
                    "indices" : 7,
                    "material" : 1
                }
            ]
        }
    ],
    "accessors" : [
        {
            "bufferView" : 0,
            "componentType" : 5126,
            "count" : 775,
            "max" : [
                0.9883139133453369,
                -0.26297658681869507,
                1.0938639640808105
            ],
            "min" : [
                -0.9883139133453369,
                -9.038867950439453,
                -1.069918155670166
            ],
            "type" : "VEC3"
        },
        {
            "bufferView" : 1,
            "componentType" : 5126,
            "count" : 775,
            "type" : "VEC3"
        },
        {
            "bufferView" : 2,
            "componentType" : 5126,
            "count" : 775,
            "type" : "VEC2"
        },
        {
            "bufferView" : 3,
            "componentType" : 5123,
            "count" : 1641,
            "type" : "SCALAR"
        },
        {
            "bufferView" : 4,
            "componentType" : 5126,
            "count" : 11394,
            "max" : [
                0.977379322052002,
                -5.836651802062988,
                1.1054039001464844
            ],
            "min" : [
                -0.8466745018959045,
                -12.192750930786133,
                -1.2816773653030396
            ],
            "type" : "VEC3"
        },
        {
            "bufferView" : 5,
            "componentType" : 5126,
            "count" : 11394,
            "type" : "VEC3"
        },
        {
            "bufferView" : 6,
            "componentType" : 5126,
            "count" : 11394,
            "type" : "VEC2"
        },
        {
            "bufferView" : 7,
            "componentType" : 5123,
            "count" : 18723,
            "type" : "SCALAR"
        },
        {
            "bufferView" : 8,
            "componentType" : 5126,
            "count" : 775,
            "max" : [
                0.9883139133453369,
                -0.26297658681869507,
                1.0938639640808105
            ],
            "min" : [
                -0.9883139133453369,
                -9.038867950439453,
                -1.069918155670166
            ],
            "type" : "VEC3"
        },
        {
            "bufferView" : 9,
            "componentType" : 5126,
            "count" : 775,
            "type" : "VEC3"
        },
        {
            "bufferView" : 10,
            "componentType" : 5126,
            "count" : 775,
            "type" : "VEC2"
        },
        {
            "bufferView" : 11,
            "componentType" : 5126,
            "count" : 11394,
            "max" : [
                0.977379322052002,
                -5.836651802062988,
                1.1054039001464844
            ],
            "min" : [
                -0.8466745018959045,
                -12.192750930786133,
                -1.2816773653030396
            ],
            "type" : "VEC3"
        },
        {
            "bufferView" : 12,
            "componentType" : 5126,
            "count" : 11394,
            "type" : "VEC3"
        },
        {
            "bufferView" : 13,
            "componentType" : 5126,
            "count" : 11394,
            "type" : "VEC2"
        },
        {
            "bufferView" : 14,
            "componentType" : 5126,
            "count" : 775,
            "max" : [
                0.9883139133453369,
                -0.26297658681869507,
                1.0938639640808105
            ],
            "min" : [
                -0.9883139133453369,
                -9.038867950439453,
                -1.069918155670166
            ],
            "type" : "VEC3"
        },
        {
            "bufferView" : 15,
            "componentType" : 5126,
            "count" : 775,
            "type" : "VEC3"
        },
        {
            "bufferView" : 16,
            "componentType" : 5126,
            "count" : 775,
            "type" : "VEC2"
        },
        {
            "bufferView" : 17,
            "componentType" : 5126,
            "count" : 11394,
            "max" : [
                0.977379322052002,
                -5.836651802062988,
                1.1054039001464844
            ],
            "min" : [
                -0.8466745018959045,
                -12.192750930786133,
                -1.2816773653030396
            ],
            "type" : "VEC3"
        },
        {
            "bufferView" : 18,
            "componentType" : 5126,
            "count" : 11394,
            "type" : "VEC3"
        },
        {
            "bufferView" : 19,
            "componentType" : 5126,
            "count" : 11394,
            "type" : "VEC2"
        }
    ],
    "bufferViews" : [
        {
            "buffer" : 0,
            "byteLength" : 9300,
            "byteOffset" : 0
        },
        {
            "buffer" : 0,
            "byteLength" : 9300,
            "byteOffset" : 9300
        },
        {
            "buffer" : 0,
            "byteLength" : 6200,
            "byteOffset" : 18600
        },
        {
            "buffer" : 0,
            "byteLength" : 3282,
            "byteOffset" : 24800
        },
        {
            "buffer" : 0,
            "byteLength" : 136728,
            "byteOffset" : 28084
        },
        {
            "buffer" : 0,
            "byteLength" : 136728,
            "byteOffset" : 164812
        },
        {
            "buffer" : 0,
            "byteLength" : 91152,
            "byteOffset" : 301540
        },
        {
            "buffer" : 0,
            "byteLength" : 37446,
            "byteOffset" : 392692
        },
        {
            "buffer" : 0,
            "byteLength" : 9300,
            "byteOffset" : 430140
        },
        {
            "buffer" : 0,
            "byteLength" : 9300,
            "byteOffset" : 439440
        },
        {
            "buffer" : 0,
            "byteLength" : 6200,
            "byteOffset" : 448740
        },
        {
            "buffer" : 0,
            "byteLength" : 136728,
            "byteOffset" : 454940
        },
        {
            "buffer" : 0,
            "byteLength" : 136728,
            "byteOffset" : 591668
        },
        {
            "buffer" : 0,
            "byteLength" : 91152,
            "byteOffset" : 728396
        },
        {
            "buffer" : 0,
            "byteLength" : 9300,
            "byteOffset" : 819548
        },
        {
            "buffer" : 0,
            "byteLength" : 9300,
            "byteOffset" : 828848
        },
        {
            "buffer" : 0,
            "byteLength" : 6200,
            "byteOffset" : 838148
        },
        {
            "buffer" : 0,
            "byteLength" : 136728,
            "byteOffset" : 844348
        },
        {
            "buffer" : 0,
            "byteLength" : 136728,
            "byteOffset" : 981076
        },
        {
            "buffer" : 0,
            "byteLength" : 91152,
            "byteOffset" : 1117804
        }
    ],
    "buffers" : [
        {
            "byteLength" : 1208956,
            "uri" : "data:application/octet-stream;base64,"
        }
    ]
}
