{
    "asset" : {
        "generator" : "Khronos glTF Blender I/O v1.5.17",
        "version" : "2.0"
    },
    "scene" : 0,
    "scenes" : [
        {
            "name" : "Scene",
            "nodes" : [
                0
            ]
        }
    ],
    "nodes" : [
        {
            "mesh" : 0,
            "name" : "Stand.002",
            "rotation" : [
                0.7071042060852051,
                0.0019368367502465844,
                -0.0019368529319763184,
                0.7071040868759155
            ],
            "scale" : [
                0.10442902147769928,
                0.10442902147769928,
                0.10442900657653809
            ]
        }
    ],
    "materials" : [
        {
            "doubleSided" : true,
            "name" : "Grey",
            "pbrMetallicRoughness" : {
                "baseColorFactor" : [
                    0.49189066886901855,
                    0.49189066886901855,
                    0.49189066886901855,
                    1
                ],
                "metallicFactor" : 0,
                "roughnessFactor" : 0.5
            }
        },
        {
            "doubleSided" : true,
            "name" : "Red",
            "pbrMetallicRoughness" : {
                "baseColorFactor" : [
                    1,
                    0.00012668772251345217,
                    0.00024090951774269342,
                    1
                ],
                "metallicFactor" : 0,
                "roughnessFactor" : 0.5
            }
        },
        {
            "doubleSided" : true,
            "name" : "Material.001",
            "pbrMetallicRoughness" : {
                "baseColorFactor" : [
                    0.6920710802078247,
                    0.5650311708450317,
                    0.00025803683092817664,
                    1
                ],
                "metallicFactor" : 0,
                "roughnessFactor" : 0.5
            }
        }
    ],
    "meshes" : [
        {
            "name" : "Plane.145",
            "primitives" : [
                {
                    "attributes" : {
                        "POSITION" : 0,
                        "NORMAL" : 1,
                        "TEXCOORD_0" : 2
                    },
                    "indices" : 3,
                    "material" : 0
                },
                {
                    "attributes" : {
                        "POSITION" : 4,
                        "NORMAL" : 5,
                        "TEXCOORD_0" : 6
                    },
                    "indices" : 7,
                    "material" : 1
                },
                {
                    "attributes" : {
                        "POSITION" : 8,
                        "NORMAL" : 9,
                        "TEXCOORD_0" : 10
                    },
                    "indices" : 11,
                    "material" : 2
                }
            ]
        }
    ],
    "accessors" : [
        {
            "bufferView" : 0,
            "componentType" : 5126,
            "count" : 68,
            "max" : [
                0.06129121780395508,
                0.047235578298568726,
                2.8640971183776855
            ],
            "min" : [
                -0.040009140968322754,
                -0.05406469106674194,
                0.698304295539856
            ],
            "type" : "VEC3"
        },
        {
            "bufferView" : 1,
            "componentType" : 5126,
            "count" : 68,
            "type" : "VEC3"
        },
        {
            "bufferView" : 2,
            "componentType" : 5126,
            "count" : 68,
            "type" : "VEC2"
        },
        {
            "bufferView" : 3,
            "componentType" : 5123,
            "count" : 126,
            "type" : "SCALAR"
        },
        {
            "bufferView" : 4,
            "componentType" : 5126,
            "count" : 154,
            "max" : [
                1.0259184837341309,
                0.04937511682510376,
                0.698304295539856
            ],
            "min" : [
                -1.0294839143753052,
                -0.056204259395599365,
                0.07582402229309082
            ],
            "type" : "VEC3"
        },
        {
            "bufferView" : 5,
            "componentType" : 5126,
            "count" : 154,
            "type" : "VEC3"
        },
        {
            "bufferView" : 6,
            "componentType" : 5126,
            "count" : 154,
            "type" : "VEC2"
        },
        {
            "bufferView" : 7,
            "componentType" : 5123,
            "count" : 306,
            "type" : "SCALAR"
        },
        {
            "bufferView" : 8,
            "componentType" : 5126,
            "count" : 940,
            "max" : [
                0.9284697771072388,
                0.09397044777870178,
                0.2980034351348877
            ],
            "min" : [
                -0.9208410978317261,
                -0.0889291763305664,
                -1.325461506843567
            ],
            "type" : "VEC3"
        },
        {
            "bufferView" : 9,
            "componentType" : 5126,
            "count" : 940,
            "type" : "VEC3"
        },
        {
            "bufferView" : 10,
            "componentType" : 5126,
            "count" : 940,
            "type" : "VEC2"
        },
        {
            "bufferView" : 11,
            "componentType" : 5123,
            "count" : 1536,
            "type" : "SCALAR"
        }
    ],
    "bufferViews" : [
        {
            "buffer" : 0,
            "byteLength" : 816,
            "byteOffset" : 0
        },
        {
            "buffer" : 0,
            "byteLength" : 816,
            "byteOffset" : 816
        },
        {
            "buffer" : 0,
            "byteLength" : 544,
            "byteOffset" : 1632
        },
        {
            "buffer" : 0,
            "byteLength" : 252,
            "byteOffset" : 2176
        },
        {
            "buffer" : 0,
            "byteLength" : 1848,
            "byteOffset" : 2428
        },
        {
            "buffer" : 0,
            "byteLength" : 1848,
            "byteOffset" : 4276
        },
        {
            "buffer" : 0,
            "byteLength" : 1232,
            "byteOffset" : 6124
        },
        {
            "buffer" : 0,
            "byteLength" : 612,
            "byteOffset" : 7356
        },
        {
            "buffer" : 0,
            "byteLength" : 11280,
            "byteOffset" : 7968
        },
        {
            "buffer" : 0,
            "byteLength" : 11280,
            "byteOffset" : 19248
        },
        {
            "buffer" : 0,
            "byteLength" : 7520,
            "byteOffset" : 30528
        },
        {
            "buffer" : 0,
            "byteLength" : 3072,
            "byteOffset" : 38048
        }
    ],
    "buffers" : [
        {
            "byteLength" : 41120,
            "uri" : "data:application/octet-stream;base64,"
        }
    ]
}
