{
    "asset" : {
        "generator" : "Khronos glTF Blender I/O v1.5.17",
        "version" : "2.0"
    },
    "scene" : 0,
    "scenes" : [
        {
            "name" : "Scene",
            "nodes" : [
                0
            ]
        }
    ],
    "nodes" : [
        {
            "mesh" : 0,
            "name" : "McDonald Store.001",
            "scale" : [
                0.4317627251148224,
                0.2000419646501541,
                0.2000419646501541
            ]
        }
    ],
    "materials" : [
        {
            "doubleSided" : true,
            "name" : "Material.026",
            "pbrMetallicRoughness" : {
                "baseColorFactor" : [
                    0.06124605983495712,
                    0.06124604493379593,
                    0.061246056109666824,
                    1
                ],
                "metallicFactor" : 0,
                "roughnessFactor" : 0.5
            }
        },
        {
            "doubleSided" : true,
            "name" : "Material.027",
            "pbrMetallicRoughness" : {
                "baseColorFactor" : [
                    0.4570581614971161,
                    0.4570581614971161,
                    0.4570581614971161,
                    1
                ],
                "metallicFactor" : 0,
                "roughnessFactor" : 0.5
            }
        },
        {
            "doubleSided" : true,
            "name" : "Material.028",
            "pbrMetallicRoughness" : {
                "baseColorFactor" : [
                    0.8000000715255737,
                    0.015741879120469093,
                    0.023663967847824097,
                    1
                ],
                "metallicFactor" : 0,
                "roughnessFactor" : 0.5
            }
        },
        {
            "doubleSided" : true,
            "name" : "Material.029",
            "pbrMetallicRoughness" : {
                "baseColorFactor" : [
                    0.7037487030029297,
                    0.07399894297122955,
                    0.045441705733537674,
                    1
                ],
                "metallicFactor" : 0,
                "roughnessFactor" : 0.5
            }
        },
        {
            "doubleSided" : true,
            "name" : "Material.030",
            "pbrMetallicRoughness" : {
                "baseColorFactor" : [
                    0.007192564196884632,
                    0.007192564196884632,
                    0.007192564196884632,
                    1
                ],
                "metallicFactor" : 0,
                "roughnessFactor" : 0.5
            }
        },
        {
            "doubleSided" : true,
            "emissiveFactor" : [
                1,
                0.9147818088531494,
                0.11604060977697372
            ],
            "name" : "Material.031",
            "pbrMetallicRoughness" : {
                "baseColorFactor" : [
                    1,
                    0.6466233134269714,
                    0.26535865664482117,
                    1
                ],
                "metallicFactor" : 0,
                "roughnessFactor" : 0.5
            }
        },
        {
            "doubleSided" : true,
            "name" : "Material.032",
            "pbrMetallicRoughness" : {
                "baseColorFactor" : [
                    1,
                    0.8148465752601624,
                    0.0003035739064216614,
                    1
                ],
                "metallicFactor" : 0,
                "roughnessFactor" : 0.5
            }
        },
        {
            "doubleSided" : true,
            "name" : "Material.034",
            "pbrMetallicRoughness" : {
                "baseColorFactor" : [
                    0.1758219599723816,
                    0.1758219599723816,
                    0.1758219599723816,
                    1
                ],
                "metallicFactor" : 0,
                "roughnessFactor" : 0.5
            }
        }
    ],
    "meshes" : [
        {
            "name" : "Cube.136",
            "primitives" : [
                {
                    "attributes" : {
                        "POSITION" : 0,
                        "NORMAL" : 1,
                        "TEXCOORD_0" : 2
                    },
                    "indices" : 3,
                    "material" : 0
                },
                {
                    "attributes" : {
                        "POSITION" : 4,
                        "NORMAL" : 5,
                        "TEXCOORD_0" : 6
                    },
                    "indices" : 7,
                    "material" : 1
                },
                {
                    "attributes" : {
                        "POSITION" : 8,
                        "NORMAL" : 9,
                        "TEXCOORD_0" : 10
                    },
                    "indices" : 11,
                    "material" : 2
                },
                {
                    "attributes" : {
                        "POSITION" : 12,
                        "NORMAL" : 13,
                        "TEXCOORD_0" : 14
                    },
                    "indices" : 15,
                    "material" : 3
                },
                {
                    "attributes" : {
                        "POSITION" : 16,
                        "NORMAL" : 17,
                        "TEXCOORD_0" : 18
                    },
                    "indices" : 19,
                    "material" : 4
                },
                {
                    "attributes" : {
                        "POSITION" : 20,
                        "NORMAL" : 21,
                        "TEXCOORD_0" : 22
                    },
                    "indices" : 23,
                    "material" : 5
                },
                {
                    "attributes" : {
                        "POSITION" : 24,
                        "NORMAL" : 25,
                        "TEXCOORD_0" : 26
                    },
                    "indices" : 27,
                    "material" : 6
                },
                {
                    "attributes" : {
                        "POSITION" : 28,
                        "NORMAL" : 29,
                        "TEXCOORD_0" : 30
                    },
                    "indices" : 31,
                    "material" : 7
                }
            ]
        }
    ],
    "accessors" : [
        {
            "bufferView" : 0,
            "componentType" : 5126,
            "count" : 537,
            "max" : [
                1.0830960273742676,
                1.0715599060058594,
                1.1302303075790405
            ],
            "min" : [
                -0.9180670380592346,
                -1.136581540107727,
                -1.3997125625610352
            ],
            "type" : "VEC3"
        },
        {
            "bufferView" : 1,
            "componentType" : 5126,
            "count" : 537,
            "type" : "VEC3"
        },
        {
            "bufferView" : 2,
            "componentType" : 5126,
            "count" : 537,
            "type" : "VEC2"
        },
        {
            "bufferView" : 3,
            "componentType" : 5123,
            "count" : 1299,
            "type" : "SCALAR"
        },
        {
            "bufferView" : 4,
            "componentType" : 5126,
            "count" : 11470,
            "max" : [
                1.079271674156189,
                0.9707216620445251,
                1.3090862035751343
            ],
            "min" : [
                -1.054885983467102,
                -1.136581540107727,
                -1.3997125625610352
            ],
            "type" : "VEC3"
        },
        {
            "bufferView" : 5,
            "componentType" : 5126,
            "count" : 11470,
            "type" : "VEC3"
        },
        {
            "bufferView" : 6,
            "componentType" : 5126,
            "count" : 11470,
            "type" : "VEC2"
        },
        {
            "bufferView" : 7,
            "componentType" : 5123,
            "count" : 17454,
            "type" : "SCALAR"
        },
        {
            "bufferView" : 8,
            "componentType" : 5126,
            "count" : 153,
            "max" : [
                0.792482852935791,
                1.6968556642532349,
                1.198473334312439
            ],
            "min" : [
                0.23133553564548492,
                -0.7722309231758118,
                1.0088859796524048
            ],
            "type" : "VEC3"
        },
        {
            "bufferView" : 9,
            "componentType" : 5126,
            "count" : 153,
            "type" : "VEC3"
        },
        {
            "bufferView" : 10,
            "componentType" : 5126,
            "count" : 153,
            "type" : "VEC2"
        },
        {
            "bufferView" : 11,
            "componentType" : 5123,
            "count" : 417,
            "type" : "SCALAR"
        },
        {
            "bufferView" : 12,
            "componentType" : 5126,
            "count" : 32,
            "max" : [
                1.0830960273742676,
                0.3633490800857544,
                1.0343798398971558
            ],
            "min" : [
                -0.9180670380592346,
                -0.7722309231758118,
                -1.3997125625610352
            ],
            "type" : "VEC3"
        },
        {
            "bufferView" : 13,
            "componentType" : 5126,
            "count" : 32,
            "type" : "VEC3"
        },
        {
            "bufferView" : 14,
            "componentType" : 5126,
            "count" : 32,
            "type" : "VEC2"
        },
        {
            "bufferView" : 15,
            "componentType" : 5123,
            "count" : 66,
            "type" : "SCALAR"
        },
        {
            "bufferView" : 16,
            "componentType" : 5126,
            "count" : 244,
            "max" : [
                1.0806328058242798,
                0.6457867622375488,
                1.0343798398971558
            ],
            "min" : [
                -0.9180670380592346,
                -0.9728702902793884,
                -1.3997125625610352
            ],
            "type" : "VEC3"
        },
        {
            "bufferView" : 17,
            "componentType" : 5126,
            "count" : 244,
            "type" : "VEC3"
        },
        {
            "bufferView" : 18,
            "componentType" : 5126,
            "count" : 244,
            "type" : "VEC2"
        },
        {
            "bufferView" : 19,
            "componentType" : 5123,
            "count" : 600,
            "type" : "SCALAR"
        },
        {
            "bufferView" : 20,
            "componentType" : 5126,
            "count" : 12,
            "max" : [
                0.17642506957054138,
                0.17559996247291565,
                0.9526559710502625
            ],
            "min" : [
                -0.8706764578819275,
                -0.9728702902793884,
                0.9526559710502625
            ],
            "type" : "VEC3"
        },
        {
            "bufferView" : 21,
            "componentType" : 5126,
            "count" : 12,
            "type" : "VEC3"
        },
        {
            "bufferView" : 22,
            "componentType" : 5126,
            "count" : 12,
            "type" : "VEC2"
        },
        {
            "bufferView" : 23,
            "componentType" : 5123,
            "count" : 18,
            "type" : "SCALAR"
        },
        {
            "bufferView" : 24,
            "componentType" : 5126,
            "count" : 704,
            "max" : [
                0.6753754019737244,
                1.4981025457382202,
                1.2377700805664062
            ],
            "min" : [
                0.36834585666656494,
                0.9164518117904663,
                1.1786365509033203
            ],
            "type" : "VEC3"
        },
        {
            "bufferView" : 25,
            "componentType" : 5126,
            "count" : 704,
            "type" : "VEC3"
        },
        {
            "bufferView" : 26,
            "componentType" : 5126,
            "count" : 704,
            "type" : "VEC2"
        },
        {
            "bufferView" : 27,
            "componentType" : 5123,
            "count" : 1056,
            "type" : "SCALAR"
        },
        {
            "bufferView" : 28,
            "componentType" : 5126,
            "count" : 128,
            "max" : [
                -0.06855085492134094,
                0.9707216620445251,
                -0.17483176290988922
            ],
            "min" : [
                -0.2871173024177551,
                0.9707216620445251,
                -0.8209359645843506
            ],
            "type" : "VEC3"
        },
        {
            "bufferView" : 29,
            "componentType" : 5126,
            "count" : 128,
            "type" : "VEC3"
        },
        {
            "bufferView" : 30,
            "componentType" : 5126,
            "count" : 128,
            "type" : "VEC2"
        },
        {
            "bufferView" : 31,
            "componentType" : 5123,
            "count" : 360,
            "type" : "SCALAR"
        }
    ],
    "bufferViews" : [
        {
            "buffer" : 0,
            "byteLength" : 6444,
            "byteOffset" : 0
        },
        {
            "buffer" : 0,
            "byteLength" : 6444,
            "byteOffset" : 6444
        },
        {
            "buffer" : 0,
            "byteLength" : 4296,
            "byteOffset" : 12888
        },
        {
            "buffer" : 0,
            "byteLength" : 2598,
            "byteOffset" : 17184
        },
        {
            "buffer" : 0,
            "byteLength" : 137640,
            "byteOffset" : 19784
        },
        {
            "buffer" : 0,
            "byteLength" : 137640,
            "byteOffset" : 157424
        },
        {
            "buffer" : 0,
            "byteLength" : 91760,
            "byteOffset" : 295064
        },
        {
            "buffer" : 0,
            "byteLength" : 34908,
            "byteOffset" : 386824
        },
        {
            "buffer" : 0,
            "byteLength" : 1836,
            "byteOffset" : 421732
        },
        {
            "buffer" : 0,
            "byteLength" : 1836,
            "byteOffset" : 423568
        },
        {
            "buffer" : 0,
            "byteLength" : 1224,
            "byteOffset" : 425404
        },
        {
            "buffer" : 0,
            "byteLength" : 834,
            "byteOffset" : 426628
        },
        {
            "buffer" : 0,
            "byteLength" : 384,
            "byteOffset" : 427464
        },
        {
            "buffer" : 0,
            "byteLength" : 384,
            "byteOffset" : 427848
        },
        {
            "buffer" : 0,
            "byteLength" : 256,
            "byteOffset" : 428232
        },
        {
            "buffer" : 0,
            "byteLength" : 132,
            "byteOffset" : 428488
        },
        {
            "buffer" : 0,
            "byteLength" : 2928,
            "byteOffset" : 428620
        },
        {
            "buffer" : 0,
            "byteLength" : 2928,
            "byteOffset" : 431548
        },
        {
            "buffer" : 0,
            "byteLength" : 1952,
            "byteOffset" : 434476
        },
        {
            "buffer" : 0,
            "byteLength" : 1200,
            "byteOffset" : 436428
        },
        {
            "buffer" : 0,
            "byteLength" : 144,
            "byteOffset" : 437628
        },
        {
            "buffer" : 0,
            "byteLength" : 144,
            "byteOffset" : 437772
        },
        {
            "buffer" : 0,
            "byteLength" : 96,
            "byteOffset" : 437916
        },
        {
            "buffer" : 0,
            "byteLength" : 36,
            "byteOffset" : 438012
        },
        {
            "buffer" : 0,
            "byteLength" : 8448,
            "byteOffset" : 438048
        },
        {
            "buffer" : 0,
            "byteLength" : 8448,
            "byteOffset" : 446496
        },
        {
            "buffer" : 0,
            "byteLength" : 5632,
            "byteOffset" : 454944
        },
        {
            "buffer" : 0,
            "byteLength" : 2112,
            "byteOffset" : 460576
        },
        {
            "buffer" : 0,
            "byteLength" : 1536,
            "byteOffset" : 462688
        },
        {
            "buffer" : 0,
            "byteLength" : 1536,
            "byteOffset" : 464224
        },
        {
            "buffer" : 0,
            "byteLength" : 1024,
            "byteOffset" : 465760
        },
        {
            "buffer" : 0,
            "byteLength" : 720,
            "byteOffset" : 466784
        }
    ],
    "buffers" : [
        {
            "byteLength" : 467504,
            "uri" : "data:application/octet-stream;base64,"
        }
    ]
}
