{
    "asset" : {
        "generator" : "Khronos glTF Blender I/O v1.5.17",
        "version" : "2.0"
    },
    "scene" : 0,
    "scenes" : [
        {
            "name" : "Scene",
            "nodes" : [
                0
            ]
        }
    ],
    "nodes" : [
        {
            "mesh" : 0,
            "name" : "Circle",
            "scale" : [
                0.0910329595208168,
                0.10922929644584656,
                0.10922929644584656
            ]
        }
    ],
    "materials" : [
        {
            "doubleSided" : true,
            "name" : "Material.008",
            "pbrMetallicRoughness" : {
                "baseColorFactor" : [
                    0,
                    0.1338537335395813,
                    0.5324352383613586,
                    1
                ],
                "metallicFactor" : 0,
                "roughnessFactor" : 0.5
            }
        },
        {
            "doubleSided" : true,
            "name" : "Material.002",
            "pbrMetallicRoughness" : {
                "baseColorFactor" : [
                    0.4570583701133728,
                    0.4570583701133728,
                    0.4570583701133728,
                    1
                ],
                "metallicFactor" : 0,
                "roughnessFactor" : 0.5
            }
        }
    ],
    "meshes" : [
        {
            "name" : "Circle",
            "primitives" : [
                {
                    "attributes" : {
                        "POSITION" : 0,
                        "NORMAL" : 1,
                        "TEXCOORD_0" : 2
                    },
                    "indices" : 3,
                    "material" : 0
                },
                {
                    "attributes" : {
                        "POSITION" : 4,
                        "NORMAL" : 5,
                        "TEXCOORD_0" : 6
                    },
                    "indices" : 7,
                    "material" : 1
                }
            ]
        }
    ],
    "accessors" : [
        {
            "bufferView" : 0,
            "componentType" : 5126,
            "count" : 892,
            "max" : [
                3.1467347145080566,
                0.16485446691513062,
                0.995791494846344
            ],
            "min" : [
                -3.1657721996307373,
                -0.21241334080696106,
                -0.9958850145339966
            ],
            "type" : "VEC3"
        },
        {
            "bufferView" : 1,
            "componentType" : 5126,
            "count" : 892,
            "type" : "VEC3"
        },
        {
            "bufferView" : 2,
            "componentType" : 5126,
            "count" : 892,
            "type" : "VEC2"
        },
        {
            "bufferView" : 3,
            "componentType" : 5123,
            "count" : 2424,
            "type" : "SCALAR"
        },
        {
            "bufferView" : 4,
            "componentType" : 5126,
            "count" : 3280,
            "max" : [
                2.131977081298828,
                0.2740388512611389,
                0.47101086378097534
            ],
            "min" : [
                -2.1510167121887207,
                0.16485446691513062,
                -0.4711042642593384
            ],
            "type" : "VEC3"
        },
        {
            "bufferView" : 5,
            "componentType" : 5126,
            "count" : 3280,
            "type" : "VEC3"
        },
        {
            "bufferView" : 6,
            "componentType" : 5126,
            "count" : 3280,
            "type" : "VEC2"
        },
        {
            "bufferView" : 7,
            "componentType" : 5123,
            "count" : 6012,
            "type" : "SCALAR"
        }
    ],
    "bufferViews" : [
        {
            "buffer" : 0,
            "byteLength" : 10704,
            "byteOffset" : 0
        },
        {
            "buffer" : 0,
            "byteLength" : 10704,
            "byteOffset" : 10704
        },
        {
            "buffer" : 0,
            "byteLength" : 7136,
            "byteOffset" : 21408
        },
        {
            "buffer" : 0,
            "byteLength" : 4848,
            "byteOffset" : 28544
        },
        {
            "buffer" : 0,
            "byteLength" : 39360,
            "byteOffset" : 33392
        },
        {
            "buffer" : 0,
            "byteLength" : 39360,
            "byteOffset" : 72752
        },
        {
            "buffer" : 0,
            "byteLength" : 26240,
            "byteOffset" : 112112
        },
        {
            "buffer" : 0,
            "byteLength" : 12024,
            "byteOffset" : 138352
        }
    ],
    "buffers" : [
        {
            "byteLength" : 150376,
            "uri" : "data:application/octet-stream;base64,"
        }
    ]
}
