{
    "asset" : {
        "generator" : "Khronos glTF Blender I/O v1.5.17",
        "version" : "2.0"
    },
    "scene" : 0,
    "scenes" : [
        {
            "name" : "Scene",
            "nodes" : [
                0
            ]
        }
    ],
    "nodes" : [
        {
            "mesh" : 0,
            "name" : "Circle.001",
            "scale" : [
                0.1101326122879982,
                0.10033940523862839,
                0.10033940523862839
            ]
        }
    ],
    "materials" : [
        {
            "doubleSided" : true,
            "name" : "Material.009",
            "pbrMetallicRoughness" : {
                "baseColorFactor" : [
                    0,
                    0.3882991373538971,
                    0.11206246167421341,
                    1
                ],
                "metallicFactor" : 0,
                "roughnessFactor" : 0.5
            }
        },
        {
            "doubleSided" : true,
            "name" : "Material.002",
            "pbrMetallicRoughness" : {
                "baseColorFactor" : [
                    0.4570583701133728,
                    0.4570583701133728,
                    0.4570583701133728,
                    1
                ],
                "metallicFactor" : 0,
                "roughnessFactor" : 0.5
            }
        }
    ],
    "meshes" : [
        {
            "name" : "Circle.001",
            "primitives" : [
                {
                    "attributes" : {
                        "POSITION" : 0,
                        "NORMAL" : 1,
                        "TEXCOORD_0" : 2
                    },
                    "indices" : 3,
                    "material" : 0
                },
                {
                    "attributes" : {
                        "POSITION" : 4,
                        "NORMAL" : 5,
                        "TEXCOORD_0" : 6
                    },
                    "indices" : 7,
                    "material" : 1
                }
            ]
        }
    ],
    "accessors" : [
        {
            "bufferView" : 0,
            "componentType" : 5126,
            "count" : 1051,
            "max" : [
                3.162019968032837,
                0.15621346235275269,
                0.9965798854827881
            ],
            "min" : [
                -3.150486946105957,
                -0.221054345369339,
                -0.9950966238975525
            ],
            "type" : "VEC3"
        },
        {
            "bufferView" : 1,
            "componentType" : 5126,
            "count" : 1051,
            "type" : "VEC3"
        },
        {
            "bufferView" : 2,
            "componentType" : 5126,
            "count" : 1051,
            "type" : "VEC2"
        },
        {
            "bufferView" : 3,
            "componentType" : 5123,
            "count" : 2883,
            "type" : "SCALAR"
        },
        {
            "bufferView" : 4,
            "componentType" : 5126,
            "count" : 4015,
            "max" : [
                2.548157215118408,
                0.28536391258239746,
                0.4167657196521759
            ],
            "min" : [
                -2.5559909343719482,
                0.15621346235275269,
                -0.4077827036380768
            ],
            "type" : "VEC3"
        },
        {
            "bufferView" : 5,
            "componentType" : 5126,
            "count" : 4015,
            "type" : "VEC3"
        },
        {
            "bufferView" : 6,
            "componentType" : 5126,
            "count" : 4015,
            "type" : "VEC2"
        },
        {
            "bufferView" : 7,
            "componentType" : 5123,
            "count" : 7269,
            "type" : "SCALAR"
        }
    ],
    "bufferViews" : [
        {
            "buffer" : 0,
            "byteLength" : 12612,
            "byteOffset" : 0
        },
        {
            "buffer" : 0,
            "byteLength" : 12612,
            "byteOffset" : 12612
        },
        {
            "buffer" : 0,
            "byteLength" : 8408,
            "byteOffset" : 25224
        },
        {
            "buffer" : 0,
            "byteLength" : 5766,
            "byteOffset" : 33632
        },
        {
            "buffer" : 0,
            "byteLength" : 48180,
            "byteOffset" : 39400
        },
        {
            "buffer" : 0,
            "byteLength" : 48180,
            "byteOffset" : 87580
        },
        {
            "buffer" : 0,
            "byteLength" : 32120,
            "byteOffset" : 135760
        },
        {
            "buffer" : 0,
            "byteLength" : 14538,
            "byteOffset" : 167880
        }
    ],
    "buffers" : [
        {
            "byteLength" : 182420,
            "uri" : "data:application/octet-stream;base64,"
        }
    ]
}
