{
    "asset" : {
        "generator" : "Khronos glTF Blender I/O v1.5.17",
        "version" : "2.0"
    },
    "scene" : 0,
    "scenes" : [
        {
            "name" : "Scene",
            "nodes" : [
                0
            ]
        }
    ],
    "nodes" : [
        {
            "mesh" : 0,
            "name" : "Circle.002",
            "scale" : [
                0.11099791526794434,
                0.11099791526794434,
                0.11099791526794434
            ]
        }
    ],
    "materials" : [
        {
            "doubleSided" : true,
            "name" : "Material.009",
            "pbrMetallicRoughness" : {
                "baseColorFactor" : [
                    0,
                    0.13734900951385498,
                    0.04263405501842499,
                    1
                ],
                "metallicFactor" : 0,
                "roughnessFactor" : 0.5
            }
        },
        {
            "doubleSided" : true,
            "name" : "Material.002",
            "pbrMetallicRoughness" : {
                "baseColorFactor" : [
                    0.4570583701133728,
                    0.4570583701133728,
                    0.4570583701133728,
                    1
                ],
                "metallicFactor" : 0,
                "roughnessFactor" : 0.5
            }
        }
    ],
    "meshes" : [
        {
            "name" : "Circle.002",
            "primitives" : [
                {
                    "attributes" : {
                        "POSITION" : 0,
                        "NORMAL" : 1,
                        "TEXCOORD_0" : 2
                    },
                    "indices" : 3,
                    "material" : 0
                },
                {
                    "attributes" : {
                        "POSITION" : 4,
                        "NORMAL" : 5,
                        "TEXCOORD_0" : 6
                    },
                    "indices" : 7,
                    "material" : 1
                }
            ]
        }
    ],
    "accessors" : [
        {
            "bufferView" : 0,
            "componentType" : 5126,
            "count" : 660,
            "max" : [
                3.159245729446411,
                0.15596292912960052,
                0.9952646493911743
            ],
            "min" : [
                -3.153261184692383,
                -0.22130487859249115,
                -0.9964118599891663
            ],
            "type" : "VEC3"
        },
        {
            "bufferView" : 1,
            "componentType" : 5126,
            "count" : 660,
            "type" : "VEC3"
        },
        {
            "bufferView" : 2,
            "componentType" : 5126,
            "count" : 660,
            "type" : "VEC2"
        },
        {
            "bufferView" : 3,
            "componentType" : 5123,
            "count" : 1710,
            "type" : "SCALAR"
        },
        {
            "bufferView" : 4,
            "componentType" : 5126,
            "count" : 2094,
            "max" : [
                2.6804420948028564,
                0.27470290660858154,
                0.4443550407886505
            ],
            "min" : [
                -2.635434865951538,
                0.15596292912960052,
                -0.4658803343772888
            ],
            "type" : "VEC3"
        },
        {
            "bufferView" : 5,
            "componentType" : 5126,
            "count" : 2094,
            "type" : "VEC3"
        },
        {
            "bufferView" : 6,
            "componentType" : 5126,
            "count" : 2094,
            "type" : "VEC2"
        },
        {
            "bufferView" : 7,
            "componentType" : 5123,
            "count" : 3774,
            "type" : "SCALAR"
        }
    ],
    "bufferViews" : [
        {
            "buffer" : 0,
            "byteLength" : 7920,
            "byteOffset" : 0
        },
        {
            "buffer" : 0,
            "byteLength" : 7920,
            "byteOffset" : 7920
        },
        {
            "buffer" : 0,
            "byteLength" : 5280,
            "byteOffset" : 15840
        },
        {
            "buffer" : 0,
            "byteLength" : 3420,
            "byteOffset" : 21120
        },
        {
            "buffer" : 0,
            "byteLength" : 25128,
            "byteOffset" : 24540
        },
        {
            "buffer" : 0,
            "byteLength" : 25128,
            "byteOffset" : 49668
        },
        {
            "buffer" : 0,
            "byteLength" : 16752,
            "byteOffset" : 74796
        },
        {
            "buffer" : 0,
            "byteLength" : 7548,
            "byteOffset" : 91548
        }
    ],
    "buffers" : [
        {
            "byteLength" : 99096,
            "uri" : "data:application/octet-stream;base64,"
        }
    ]
}
