{
    "asset" : {
        "generator" : "Khronos glTF Blender I/O v1.5.17",
        "version" : "2.0"
    },
    "scene" : 0,
    "scenes" : [
        {
            "name" : "Scene",
            "nodes" : [
                0
            ]
        }
    ],
    "nodes" : [
        {
            "mesh" : 0,
            "name" : "Github Button.001",
            "scale" : [
                0.13592830300331116,
                0.017083223909139633,
                0.13592830300331116
            ]
        }
    ],
    "materials" : [
        {
            "doubleSided" : true,
            "name" : "Material.022",
            "pbrMetallicRoughness" : {
                "baseColorFactor" : [
                    0.01959466002881527,
                    0.01959466002881527,
                    0.01959466002881527,
                    1
                ],
                "metallicFactor" : 0,
                "roughnessFactor" : 0.5
            }
        },
        {
            "doubleSided" : true,
            "name" : "Material.023",
            "pbrMetallicRoughness" : {
                "baseColorFactor" : [
                    0.800000011920929,
                    0.800000011920929,
                    0.800000011920929,
                    1
                ],
                "metallicFactor" : 0,
                "roughnessFactor" : 0.5
            }
        }
    ],
    "meshes" : [
        {
            "name" : "Cylinder.049",
            "primitives" : [
                {
                    "attributes" : {
                        "POSITION" : 0,
                        "NORMAL" : 1,
                        "TEXCOORD_0" : 2
                    },
                    "indices" : 3,
                    "material" : 0
                },
                {
                    "attributes" : {
                        "POSITION" : 4,
                        "NORMAL" : 5,
                        "TEXCOORD_0" : 6
                    },
                    "indices" : 7,
                    "material" : 1
                }
            ]
        }
    ],
    "accessors" : [
        {
            "bufferView" : 0,
            "componentType" : 5126,
            "count" : 1204,
            "max" : [
                1,
                0.5051908493041992,
                1
            ],
            "min" : [
                -1,
                -1,
                -1
            ],
            "type" : "VEC3"
        },
        {
            "bufferView" : 1,
            "componentType" : 5126,
            "count" : 1204,
            "type" : "VEC3"
        },
        {
            "bufferView" : 2,
            "componentType" : 5126,
            "count" : 1204,
            "type" : "VEC2"
        },
        {
            "bufferView" : 3,
            "componentType" : 5123,
            "count" : 2097,
            "type" : "SCALAR"
        },
        {
            "bufferView" : 4,
            "componentType" : 5126,
            "count" : 655,
            "max" : [
                0.6476461887359619,
                0.985706090927124,
                1
            ],
            "min" : [
                -0.7447785139083862,
                0.5051904916763306,
                -0.5893699526786804
            ],
            "type" : "VEC3"
        },
        {
            "bufferView" : 5,
            "componentType" : 5126,
            "count" : 655,
            "type" : "VEC3"
        },
        {
            "bufferView" : 6,
            "componentType" : 5126,
            "count" : 655,
            "type" : "VEC2"
        },
        {
            "bufferView" : 7,
            "componentType" : 5123,
            "count" : 1173,
            "type" : "SCALAR"
        }
    ],
    "bufferViews" : [
        {
            "buffer" : 0,
            "byteLength" : 14448,
            "byteOffset" : 0
        },
        {
            "buffer" : 0,
            "byteLength" : 14448,
            "byteOffset" : 14448
        },
        {
            "buffer" : 0,
            "byteLength" : 9632,
            "byteOffset" : 28896
        },
        {
            "buffer" : 0,
            "byteLength" : 4194,
            "byteOffset" : 38528
        },
        {
            "buffer" : 0,
            "byteLength" : 7860,
            "byteOffset" : 42724
        },
        {
            "buffer" : 0,
            "byteLength" : 7860,
            "byteOffset" : 50584
        },
        {
            "buffer" : 0,
            "byteLength" : 5240,
            "byteOffset" : 58444
        },
        {
            "buffer" : 0,
            "byteLength" : 2346,
            "byteOffset" : 63684
        }
    ],
    "buffers" : [
        {
            "byteLength" : 66032,
            "uri" : "data:application/octet-stream;base64,"
        }
    ]
}
