{
    "asset" : {
        "generator" : "Khronos glTF Blender I/O v1.5.17",
        "version" : "2.0"
    },
    "scene" : 0,
    "scenes" : [
        {
            "name" : "Scene",
            "nodes" : [
                0
            ]
        }
    ],
    "nodes" : [
        {
            "mesh" : 0,
            "name" : "Circle.002",
            "scale" : [
                0.11099791526794434,
                0.11099791526794434,
                0.11099791526794434
            ]
        }
    ],
    "materials" : [
        {
            "doubleSided" : true,
            "name" : "Material.009",
            "pbrMetallicRoughness" : {
                "baseColorFactor" : [
                    0,
                    0.3882991373538971,
                    0.11206246167421341,
                    1
                ],
                "metallicFactor" : 0,
                "roughnessFactor" : 0.5
            }
        },
        {
            "doubleSided" : true,
            "name" : "Material.002",
            "pbrMetallicRoughness" : {
                "baseColorFactor" : [
                    0.4570583701133728,
                    0.4570583701133728,
                    0.4570583701133728,
                    1
                ],
                "metallicFactor" : 0,
                "roughnessFactor" : 0.5
            }
        }
    ],
    "meshes" : [
        {
            "name" : "Circle.002",
            "primitives" : [
                {
                    "attributes" : {
                        "POSITION" : 0,
                        "NORMAL" : 1,
                        "TEXCOORD_0" : 2
                    },
                    "indices" : 3,
                    "material" : 0
                },
                {
                    "attributes" : {
                        "POSITION" : 4,
                        "NORMAL" : 5,
                        "TEXCOORD_0" : 6
                    },
                    "indices" : 7,
                    "material" : 1
                }
            ]
        }
    ],
    "accessors" : [
        {
            "bufferView" : 0,
            "componentType" : 5126,
            "count" : 893,
            "max" : [
                3.149561882019043,
                0.15646329522132874,
                0.9947119951248169
            ],
            "min" : [
                -3.162945032119751,
                -0.22080451250076294,
                -0.9969645142555237
            ],
            "type" : "VEC3"
        },
        {
            "bufferView" : 1,
            "componentType" : 5126,
            "count" : 893,
            "type" : "VEC3"
        },
        {
            "bufferView" : 2,
            "componentType" : 5126,
            "count" : 893,
            "type" : "VEC2"
        },
        {
            "bufferView" : 3,
            "componentType" : 5123,
            "count" : 2451,
            "type" : "SCALAR"
        },
        {
            "bufferView" : 4,
            "componentType" : 5126,
            "count" : 3315,
            "max" : [
                2.413188934326172,
                0.27520325779914856,
                0.44507914781570435
            ],
            "min" : [
                -2.2860770225524902,
                0.15646329522132874,
                -0.467709481716156
            ],
            "type" : "VEC3"
        },
        {
            "bufferView" : 5,
            "componentType" : 5126,
            "count" : 3315,
            "type" : "VEC3"
        },
        {
            "bufferView" : 6,
            "componentType" : 5126,
            "count" : 3315,
            "type" : "VEC2"
        },
        {
            "bufferView" : 7,
            "componentType" : 5123,
            "count" : 6021,
            "type" : "SCALAR"
        }
    ],
    "bufferViews" : [
        {
            "buffer" : 0,
            "byteLength" : 10716,
            "byteOffset" : 0
        },
        {
            "buffer" : 0,
            "byteLength" : 10716,
            "byteOffset" : 10716
        },
        {
            "buffer" : 0,
            "byteLength" : 7144,
            "byteOffset" : 21432
        },
        {
            "buffer" : 0,
            "byteLength" : 4902,
            "byteOffset" : 28576
        },
        {
            "buffer" : 0,
            "byteLength" : 39780,
            "byteOffset" : 33480
        },
        {
            "buffer" : 0,
            "byteLength" : 39780,
            "byteOffset" : 73260
        },
        {
            "buffer" : 0,
            "byteLength" : 26520,
            "byteOffset" : 113040
        },
        {
            "buffer" : 0,
            "byteLength" : 12042,
            "byteOffset" : 139560
        }
    ],
    "buffers" : [
        {
            "byteLength" : 151604,
            "uri" : "data:application/octet-stream;base64,"
        }
    ]
}
