{
    "asset" : {
        "generator" : "Khronos glTF Blender I/O v1.5.17",
        "version" : "2.0"
    },
    "scene" : 0,
    "scenes" : [
        {
            "name" : "Scene",
            "nodes" : [
                0
            ]
        }
    ],
    "nodes" : [
        {
            "mesh" : 0,
            "name" : "LinkedIn Button.001",
            "scale" : [
                0.13808128237724304,
                0.012464248575270176,
                0.13808128237724304
            ]
        }
    ],
    "materials" : [
        {
            "doubleSided" : true,
            "name" : "Material.024",
            "pbrMetallicRoughness" : {
                "baseColorFactor" : [
                    0,
                    0.27304309606552124,
                    0.6005091667175293,
                    1
                ],
                "metallicFactor" : 0,
                "roughnessFactor" : 0.5
            }
        },
        {
            "doubleSided" : true,
            "name" : "Material.025",
            "pbrMetallicRoughness" : {
                "baseColorFactor" : [
                    0.800000011920929,
                    0.800000011920929,
                    0.800000011920929,
                    1
                ],
                "metallicFactor" : 0,
                "roughnessFactor" : 0.5
            }
        }
    ],
    "meshes" : [
        {
            "name" : "Cylinder.050",
            "primitives" : [
                {
                    "attributes" : {
                        "POSITION" : 0,
                        "NORMAL" : 1,
                        "TEXCOORD_0" : 2
                    },
                    "indices" : 3,
                    "material" : 0
                },
                {
                    "attributes" : {
                        "POSITION" : 4,
                        "NORMAL" : 5,
                        "TEXCOORD_0" : 6
                    },
                    "indices" : 7,
                    "material" : 1
                }
            ]
        }
    ],
    "accessors" : [
        {
            "bufferView" : 0,
            "componentType" : 5126,
            "count" : 286,
            "max" : [
                1.0033910274505615,
                0.6223114132881165,
                0.9929991960525513
            ],
            "min" : [
                -0.9966088533401489,
                -2.0115911960601807,
                -1.0070006847381592
            ],
            "type" : "VEC3"
        },
        {
            "bufferView" : 1,
            "componentType" : 5126,
            "count" : 286,
            "type" : "VEC3"
        },
        {
            "bufferView" : 2,
            "componentType" : 5126,
            "count" : 286,
            "type" : "VEC2"
        },
        {
            "bufferView" : 3,
            "componentType" : 5123,
            "count" : 636,
            "type" : "SCALAR"
        },
        {
            "bufferView" : 4,
            "componentType" : 5126,
            "count" : 384,
            "max" : [
                0.572058379650116,
                0.6223114132881165,
                0.4758135676383972
            ],
            "min" : [
                -0.4977506995201111,
                0.008217334747314453,
                -0.5485750436782837
            ],
            "type" : "VEC3"
        },
        {
            "bufferView" : 5,
            "componentType" : 5126,
            "count" : 384,
            "type" : "VEC3"
        },
        {
            "bufferView" : 6,
            "componentType" : 5126,
            "count" : 384,
            "type" : "VEC2"
        },
        {
            "bufferView" : 7,
            "componentType" : 5123,
            "count" : 630,
            "type" : "SCALAR"
        }
    ],
    "bufferViews" : [
        {
            "buffer" : 0,
            "byteLength" : 3432,
            "byteOffset" : 0
        },
        {
            "buffer" : 0,
            "byteLength" : 3432,
            "byteOffset" : 3432
        },
        {
            "buffer" : 0,
            "byteLength" : 2288,
            "byteOffset" : 6864
        },
        {
            "buffer" : 0,
            "byteLength" : 1272,
            "byteOffset" : 9152
        },
        {
            "buffer" : 0,
            "byteLength" : 4608,
            "byteOffset" : 10424
        },
        {
            "buffer" : 0,
            "byteLength" : 4608,
            "byteOffset" : 15032
        },
        {
            "buffer" : 0,
            "byteLength" : 3072,
            "byteOffset" : 19640
        },
        {
            "buffer" : 0,
            "byteLength" : 1260,
            "byteOffset" : 22712
        }
    ],
    "buffers" : [
        {
            "byteLength" : 23972,
            "uri" : "data:application/octet-stream;base64,"
        }
    ]
}
