{
    "asset" : {
        "generator" : "Khronos glTF Blender I/O v1.5.17",
        "version" : "2.0"
    },
    "scene" : 0,
    "scenes" : [
        {
            "name" : "Scene",
            "nodes" : [
                0
            ]
        }
    ],
    "nodes" : [
        {
            "mesh" : 0,
            "name" : "Circle.005",
            "scale" : [
                0.1101326122879982,
                0.10033940523862839,
                0.10033940523862839
            ]
        }
    ],
    "materials" : [
        {
            "doubleSided" : true,
            "name" : "1",
            "pbrMetallicRoughness" : {
                "baseColorFactor" : [
                    0.05086405947804451,
                    0.05086405947804451,
                    0.05086405947804451,
                    1
                ],
                "metallicFactor" : 0,
                "roughnessFactor" : 0.5
            }
        },
        {
            "doubleSided" : true,
            "name" : "Material.002",
            "pbrMetallicRoughness" : {
                "baseColorFactor" : [
                    0.4570583701133728,
                    0.4570583701133728,
                    0.4570583701133728,
                    1
                ],
                "metallicFactor" : 0,
                "roughnessFactor" : 0.5
            }
        }
    ],
    "meshes" : [
        {
            "name" : "Circle.005",
            "primitives" : [
                {
                    "attributes" : {
                        "POSITION" : 0,
                        "NORMAL" : 1,
                        "TEXCOORD_0" : 2
                    },
                    "indices" : 3,
                    "material" : 0
                },
                {
                    "attributes" : {
                        "POSITION" : 4,
                        "NORMAL" : 5,
                        "TEXCOORD_0" : 6
                    },
                    "indices" : 7,
                    "material" : 1
                }
            ]
        }
    ],
    "accessors" : [
        {
            "bufferView" : 0,
            "componentType" : 5126,
            "count" : 876,
            "max" : [
                3.15678071975708,
                0.16213932633399963,
                0.9951046109199524
            ],
            "min" : [
                -3.155726194381714,
                -0.21512848138809204,
                -0.9965718984603882
            ],
            "type" : "VEC3"
        },
        {
            "bufferView" : 1,
            "componentType" : 5126,
            "count" : 876,
            "type" : "VEC3"
        },
        {
            "bufferView" : 2,
            "componentType" : 5126,
            "count" : 876,
            "type" : "VEC2"
        },
        {
            "bufferView" : 3,
            "componentType" : 5123,
            "count" : 2400,
            "type" : "SCALAR"
        },
        {
            "bufferView" : 4,
            "componentType" : 5126,
            "count" : 3037,
            "max" : [
                1.9878668785095215,
                0.2729763686656952,
                0.41154059767723083
            ],
            "min" : [
                -1.9868123531341553,
                0.16213932633399963,
                -0.41300782561302185
            ],
            "type" : "VEC3"
        },
        {
            "bufferView" : 5,
            "componentType" : 5126,
            "count" : 3037,
            "type" : "VEC3"
        },
        {
            "bufferView" : 6,
            "componentType" : 5126,
            "count" : 3037,
            "type" : "VEC2"
        },
        {
            "bufferView" : 7,
            "componentType" : 5123,
            "count" : 5880,
            "type" : "SCALAR"
        }
    ],
    "bufferViews" : [
        {
            "buffer" : 0,
            "byteLength" : 10512,
            "byteOffset" : 0
        },
        {
            "buffer" : 0,
            "byteLength" : 10512,
            "byteOffset" : 10512
        },
        {
            "buffer" : 0,
            "byteLength" : 7008,
            "byteOffset" : 21024
        },
        {
            "buffer" : 0,
            "byteLength" : 4800,
            "byteOffset" : 28032
        },
        {
            "buffer" : 0,
            "byteLength" : 36444,
            "byteOffset" : 32832
        },
        {
            "buffer" : 0,
            "byteLength" : 36444,
            "byteOffset" : 69276
        },
        {
            "buffer" : 0,
            "byteLength" : 24296,
            "byteOffset" : 105720
        },
        {
            "buffer" : 0,
            "byteLength" : 11760,
            "byteOffset" : 130016
        }
    ],
    "buffers" : [
        {
            "byteLength" : 141776,
            "uri" : "data:application/octet-stream;base64,"
        }
    ]
}
