{
    "asset" : {
        "generator" : "Khronos glTF Blender I/O v1.5.17",
        "version" : "2.0"
    },
    "scene" : 0,
    "scenes" : [
        {
            "name" : "Scene",
            "nodes" : [
                0
            ]
        }
    ],
    "nodes" : [
        {
            "mesh" : 0,
            "name" : "Circle.001",
            "scale" : [
                0.10969893634319305,
                0.10679905116558075,
                0.10679905116558075
            ]
        }
    ],
    "materials" : [
        {
            "doubleSided" : true,
            "name" : "Material.009",
            "pbrMetallicRoughness" : {
                "baseColorFactor" : [
                    0,
                    0.3882991373538971,
                    0.11206246167421341,
                    1
                ],
                "metallicFactor" : 0,
                "roughnessFactor" : 0.5
            }
        },
        {
            "doubleSided" : true,
            "name" : "Material.002",
            "pbrMetallicRoughness" : {
                "baseColorFactor" : [
                    0.4570583701133728,
                    0.4570583701133728,
                    0.4570583701133728,
                    1
                ],
                "metallicFactor" : 0,
                "roughnessFactor" : 0.5
            }
        }
    ],
    "meshes" : [
        {
            "name" : "Circle.001",
            "primitives" : [
                {
                    "attributes" : {
                        "POSITION" : 0,
                        "NORMAL" : 1,
                        "TEXCOORD_0" : 2
                    },
                    "indices" : 3,
                    "material" : 0
                },
                {
                    "attributes" : {
                        "POSITION" : 4,
                        "NORMAL" : 5,
                        "TEXCOORD_0" : 6
                    },
                    "indices" : 7,
                    "material" : 1
                }
            ]
        }
    ],
    "accessors" : [
        {
            "bufferView" : 0,
            "componentType" : 5126,
            "count" : 657,
            "max" : [
                3.153960704803467,
                0.16364414989948273,
                0.9999168515205383
            ],
            "min" : [
                -3.158546209335327,
                -0.21362365782260895,
                -0.9917596578598022
            ],
            "type" : "VEC3"
        },
        {
            "bufferView" : 1,
            "componentType" : 5126,
            "count" : 657,
            "type" : "VEC3"
        },
        {
            "bufferView" : 2,
            "componentType" : 5126,
            "count" : 657,
            "type" : "VEC2"
        },
        {
            "bufferView" : 3,
            "componentType" : 5123,
            "count" : 1737,
            "type" : "SCALAR"
        },
        {
            "bufferView" : 4,
            "componentType" : 5126,
            "count" : 2050,
            "max" : [
                1.88515043258667,
                0.28423386812210083,
                0.4243665337562561
            ],
            "min" : [
                -1.8747777938842773,
                0.16364414989948273,
                -0.5041288733482361
            ],
            "type" : "VEC3"
        },
        {
            "bufferView" : 5,
            "componentType" : 5126,
            "count" : 2050,
            "type" : "VEC3"
        },
        {
            "bufferView" : 6,
            "componentType" : 5126,
            "count" : 2050,
            "type" : "VEC2"
        },
        {
            "bufferView" : 7,
            "componentType" : 5123,
            "count" : 3927,
            "type" : "SCALAR"
        }
    ],
    "bufferViews" : [
        {
            "buffer" : 0,
            "byteLength" : 7884,
            "byteOffset" : 0
        },
        {
            "buffer" : 0,
            "byteLength" : 7884,
            "byteOffset" : 7884
        },
        {
            "buffer" : 0,
            "byteLength" : 5256,
            "byteOffset" : 15768
        },
        {
            "buffer" : 0,
            "byteLength" : 3474,
            "byteOffset" : 21024
        },
        {
            "buffer" : 0,
            "byteLength" : 24600,
            "byteOffset" : 24500
        },
        {
            "buffer" : 0,
            "byteLength" : 24600,
            "byteOffset" : 49100
        },
        {
            "buffer" : 0,
            "byteLength" : 16400,
            "byteOffset" : 73700
        },
        {
            "buffer" : 0,
            "byteLength" : 7854,
            "byteOffset" : 90100
        }
    ],
    "buffers" : [
        {
            "byteLength" : 97956,
            "uri" : "data:application/octet-stream;base64,"
        }
    ]
}
